<svg width="100%" viewBox="0 0 250 180" fill="none" xmlns="http://www.w3.org/2000/svg">
    <g filter="url(#filter0_ddddii)">
        <circle cx="126.5" cy="84.5" r="67.5" fill="#F6E7E2"/>
    </g>
    <g filter="url(#filter1_d)">
        <path d="M120.861 76.1014C121.67 75.2063 122.612 74.4421 123.655 73.8358C127.277 71.5884 131.939 69.8762 136.044 70.6946C141.925 71.8655 145.868 77.1473 147.77 82.6869C148.533 84.9049 149.169 87.3794 151.094 88.7194C152.483 89.6912 154.391 89.6635 156.017 88.9898C157.774 88.2697 158.923 86.2387 160.981 86.8519C161.822 87.1421 162.55 87.6921 163.059 88.4224C165.021 90.9956 164.884 94.6321 164.427 97.9468C164.121 100.165 163.681 102.425 162.557 104.391C161.32 106.534 159.359 108.202 157.896 110.208C156.434 112.213 155.47 114.933 156.639 116.941C156.961 117.462 157.386 117.914 157.887 118.267C158.388 118.62 158.956 118.869 159.555 118.997C160.599 119.25 161.875 119.312 162.417 120.212C163.01 121.187 162.324 122.502 161.582 123.475C158.735 127.148 154.927 129.96 150.579 131.598C144.649 133.952 137.479 131.613 133.056 127.965C131.249 126.474 129.558 124.592 127.144 124.312C126.089 124.231 125.033 124.449 124.097 124.942C123.161 125.435 122.384 126.183 121.854 127.099C121.77 127.236 121.715 127.388 121.691 127.547C121.694 127.781 121.784 128.006 121.945 128.177C122.666 129.053 123.915 129.309 125.089 129.425C126.263 129.542 127.491 129.61 128.472 130.206C130.378 131.402 129.316 132.944 127.551 133.663C125.786 134.382 123.483 133.872 121.886 133.15C118.996 131.757 116.464 129.718 114.486 127.19C112.861 125.176 111.446 122.865 109.126 121.66C105.589 119.827 100.437 121.49 98.3476 125.105C96.2583 128.72 97.6524 133.673 101.245 135.411C103.051 136.298 105.161 136.396 107.148 136.829C109.135 137.261 111.174 138.206 111.925 140.041C112.443 141.314 112.274 142.862 113.014 144.011C114.475 146.263 118.04 145.464 120.833 145.599C123.349 145.727 132.687 150.821 127.486 153.834C125.398 155.048 122.018 152.59 119.991 152.354C118.921 152.326 117.852 152.465 116.825 152.767C115.683 153.245 115.421 154.751 115.753 155.849C116.436 158.06 118.73 159.428 121.1 159.69C123.47 159.952 125.916 159.296 128.235 158.494C131.133 157.5 133.96 156.296 136.817 155.191C138.428 154.566 142.068 152.373 143.673 153.421C143.974 153.667 144.21 153.983 144.362 154.34C144.513 154.698 144.576 155.087 144.545 155.474C144.491 156.259 144.507 157.048 144.593 157.83C144.739 158.403 145.024 158.932 145.423 159.369C145.822 159.806 146.322 160.138 146.88 160.336C148.042 160.733 149.293 160.791 150.486 160.501C153.435 159.891 155.985 157.947 158.334 155.968C160.683 153.989 163.059 151.838 164.681 149.22C165.234 148.324 165.692 147.393 166.232 146.491C169.818 140.489 176.15 137.21 181.11 132.517C184.001 129.742 186.02 126.184 186.92 122.276C187.297 120.646 187.314 119.146 188.117 117.59C188.887 116.158 189.968 114.858 190.405 113.295C190.722 111.927 190.673 110.499 190.262 109.154C189.489 106.462 188.293 103.909 186.719 101.59C185.828 100.194 184.864 98.8003 184.506 97.1638C184.31 96.4428 184.354 95.6782 184.631 94.9852C184.779 94.6296 185.025 94.324 185.341 94.1044C185.657 93.8849 186.03 93.7607 186.415 93.7465C186.76 93.7837 187.095 93.8873 187.401 94.0516C188.805 94.7173 190.205 95.5067 191.791 95.6492C193.376 95.7917 195.256 95.0455 195.855 93.5475C196.013 93.0829 196.062 92.588 195.999 92.1009C195.936 91.6138 195.762 91.1475 195.491 90.7377C194.93 89.9389 194.211 89.2642 193.378 88.7558C189.939 86.4185 185.805 84.9499 183.024 81.9145C182.256 81.074 181.607 80.1342 180.862 79.2755C180.191 78.5018 179.459 77.7827 178.673 77.1251C175.247 74.2117 170.912 72.429 166.881 70.4521C165.314 69.585 163.68 68.8464 161.995 68.2437C160.581 67.812 159.17 66.8116 158.935 65.2174C158.538 62.7197 160.893 61.2719 158.745 58.9388C157.173 57.2315 154.703 56.6008 152.314 56.2935C143.923 55.2398 135.09 57.4214 127.307 61.4364C121.57 64.398 114.82 68.5917 110.782 73.7227C109.838 74.9256 108.851 76.3495 107.365 76.6142C106.592 76.154 106.495 75.088 106.6 74.1778C106.705 73.2676 106.908 72.2679 106.482 71.4826C105.907 70.4116 104.334 70.2065 103.178 70.7857C102.053 71.4368 101.2 72.4704 100.772 73.6989C100.407 74.5886 100.176 75.5279 100.086 76.4861C99.9372 78.1094 100.245 79.769 99.8706 81.383C99.5503 82.7095 98.8315 83.9053 97.8109 84.8097C96.7171 85.7868 95.2136 86.5328 94.808 87.8986C94.6993 88.3871 94.7007 88.8938 94.8121 89.382C94.9236 89.8701 95.1422 90.3275 95.4523 90.721C96.0787 91.4736 96.6632 92.2602 97.2031 93.0772C98.0511 94.6347 97.9788 96.5466 98.1178 98.3502C98.3289 102.116 99.8185 105.699 102.34 108.506C101.763 107.897 101.89 105.513 101.853 104.674C101.786 103.293 101.832 101.909 101.992 100.537C102.24 98.3706 103.56 95.9606 104.613 94.0107C107.246 89.0763 111.394 85.1206 116.447 82.7265C117.889 82.0577 119.643 81.226 119.852 79.7007C119.877 79.3053 119.882 78.9088 119.866 78.5128C119.918 77.6198 120.268 76.7706 120.861 76.1014Z" fill="url(#paint0_radial)"/>
        <path d="M109.958 93.7562C110.195 93.7543 110.432 93.7907 110.658 93.8641C111.053 94.0102 111.404 94.2579 111.673 94.5823C111.943 94.9067 112.123 95.2963 112.194 95.712C112.327 96.5846 112.192 97.4766 111.808 98.2703C110.865 100.393 109.188 101.822 107.631 103.515C106.517 104.734 105.541 106.24 105.595 107.814C103.451 104.21 103.923 99.1556 106.724 95.6325C107.499 94.702 108.713 93.7541 109.958 93.7562Z" fill="url(#paint1_radial)"/>
        <path d="M109.972 64.2483C109.088 64.3079 108.239 64.6153 107.521 65.1353C106.711 65.7528 106.057 67.0892 106.663 67.9633C106.808 68.1556 107.001 68.3071 107.222 68.4031C107.443 68.4991 107.685 68.5363 107.925 68.5112C108.392 68.4111 108.846 68.2574 109.278 68.053C109.829 67.9052 110.358 67.9171 110.885 67.7191C111.256 67.5741 111.577 67.3234 111.807 66.9978C112.037 66.6723 112.166 66.2862 112.179 65.8875C112.168 65.5037 112.027 65.1346 111.78 64.8406C111.533 64.5467 111.193 64.3451 110.817 64.2688C110.538 64.2221 110.253 64.2152 109.972 64.2483Z" fill="url(#paint2_radial)"/>
        <path d="M162.681 65.3581C162.677 65.0511 162.718 64.7452 162.803 64.4501C162.834 64.1164 162.802 63.7795 162.709 63.4573C162.511 62.8231 162.44 62.156 162.502 61.4946C162.646 60.8474 162.992 60.2633 163.491 59.8272C163.816 59.5395 164.21 59.3409 164.634 59.2505C165.014 59.1998 165.4 59.2409 165.761 59.3703C166.122 59.4998 166.446 59.7137 166.708 59.9943C167.557 60.8129 168.112 61.8889 168.287 63.0549C168.382 64.6128 166.922 66.3148 165.368 66.5704C164.628 66.6939 163.868 66.5311 163.243 66.1149C162.98 65.9568 162.787 65.7039 162.704 65.4083C162.695 65.3923 162.687 65.3755 162.681 65.3581Z" fill="url(#paint3_radial)"/>
        <path d="M159.031 57.0602C158.757 56.8495 158.527 56.5854 158.357 56.2838C158.104 56.015 157.92 55.689 157.821 55.3337C157.749 54.9488 157.81 54.5512 157.994 54.2058C158.113 53.9747 158.291 53.7791 158.51 53.6383C158.79 53.5027 159.102 53.4468 159.412 53.4768C159.722 53.5069 160.018 53.6216 160.268 53.8084C160.572 53.9684 160.825 54.2122 160.995 54.5111C161.166 54.81 161.248 55.1515 161.23 55.495C161.213 55.8385 161.098 56.1697 160.898 56.4494C160.699 56.7291 160.423 56.9456 160.104 57.0732C159.956 57.1493 159.793 57.1937 159.627 57.2036C159.46 57.2134 159.294 57.1884 159.138 57.1303C159.1 57.1108 159.064 57.0873 159.031 57.0602Z" fill="url(#paint4_radial)"/>
        <path d="M133.604 166.546C133.298 166.626 132.98 166.653 132.665 166.628C132.299 166.542 131.98 166.317 131.776 166.001C131.572 165.685 131.498 165.303 131.57 164.934C131.74 164.156 132.2 163.473 132.857 163.024C133.797 162.382 134.833 161.893 135.927 161.575L138.956 160.519C139.921 160.183 140.827 159.651 141.804 160.092C142.419 160.419 142.949 160.887 143.349 161.457C143.75 162.025 144.235 162.529 144.788 162.95C145.167 163.134 145.513 163.381 145.811 163.679C145.961 163.9 146.05 164.157 146.069 164.423C146.088 164.69 146.037 164.956 145.92 165.196C145.673 165.698 145.296 166.126 144.83 166.435C143.961 167.041 142.916 167.341 141.857 167.289C140.512 167.205 139.355 166.547 138.089 166.221C136.677 165.871 135.06 166.251 133.604 166.546Z" fill="url(#paint5_radial)"/>
        <path d="M128.26 163.094C127.839 164.667 125.392 165.371 124.225 164.463C123.978 164.298 123.797 164.05 123.717 163.763C123.637 163.476 123.662 163.171 123.789 162.902C123.963 162.693 124.179 162.521 124.422 162.398C124.665 162.275 124.93 162.203 125.202 162.186L126.807 161.869C127.126 161.784 127.463 161.788 127.781 161.882C127.98 161.983 128.139 162.149 128.232 162.353C128.324 162.557 128.345 162.787 128.289 163.003L128.26 163.094Z" fill="url(#paint6_radial)"/>
    </g>
    <g filter="url(#filter2_d)">
        <path d="M72.7993 65.0947C72.5699 63.7566 72.5492 62.3912 72.7382 61.0469C73.2688 56.2794 74.9968 50.9634 78.5761 47.9007C83.7021 43.5123 91.1177 43.6973 97.3415 45.8677C99.8351 46.7346 102.466 47.8936 104.991 47.122C106.817 46.5692 108.119 44.862 108.654 42.9544C109.239 40.8993 108.242 38.4697 110.215 37.076C111.057 36.5335 112.05 36.272 113.05 36.3293C116.691 36.3837 119.814 39.0339 122.428 41.7439C124.178 43.5574 125.872 45.5185 126.829 47.8801C127.865 50.4653 127.977 53.3605 128.734 56.0496C129.491 58.7386 131.227 61.4827 133.816 61.8452C134.502 61.9227 135.197 61.8608 135.858 61.6632C136.519 61.4656 137.134 61.1364 137.664 60.6954C138.614 59.9474 139.556 58.8621 140.73 59.0078C142.004 59.1617 142.691 60.6828 143.036 62.0167C144.306 67.0897 144.144 72.4146 142.569 77.4015C140.527 84.2844 133.471 89.0015 127.167 90.3777C124.591 90.9395 121.751 91.1263 119.823 93.067C119.018 93.9445 118.477 95.0311 118.262 96.2019C118.047 97.3727 118.168 98.5803 118.61 99.6858C118.673 99.8553 118.769 100.01 118.893 100.142C119.102 100.303 119.364 100.379 119.627 100.355C120.904 100.327 121.999 99.3992 122.918 98.4417C123.838 97.4842 124.752 96.4457 125.962 95.9916C128.346 95.1369 128.971 97.1495 128.38 99.2113C127.788 101.273 125.736 102.956 123.986 103.867C120.743 105.455 117.178 106.276 113.566 106.268C110.653 106.305 107.625 105.949 104.945 107.164C100.863 109.018 98.7512 114.734 100.497 119.097C102.242 123.46 107.594 125.671 111.63 123.701C113.671 122.72 115.225 120.922 116.99 119.464C118.755 118.007 121.008 116.86 123.154 117.472C124.641 117.899 125.893 119.125 127.424 119.27C130.434 119.544 132.205 115.834 134.267 113.457C136.13 111.32 147.132 106.601 146.181 113.298C145.803 115.99 141.277 117.271 139.659 118.9C138.889 119.827 138.269 120.869 137.822 121.988C137.451 123.332 138.6 124.61 139.803 125.08C142.235 126.013 145.041 124.936 146.921 123.021C148.801 121.107 149.921 118.486 150.825 115.876C151.961 112.622 152.862 109.283 153.871 105.986C154.439 104.127 155.03 99.3804 157.074 98.6892C157.501 98.5949 157.945 98.6054 158.367 98.7197C158.788 98.8341 159.176 99.049 159.497 99.3459C160.154 99.9401 160.862 100.474 161.615 100.942C162.224 101.212 162.89 101.327 163.554 101.278C164.218 101.229 164.86 101.018 165.423 100.662C166.583 99.9099 167.503 98.8425 168.076 97.5856C169.588 94.5528 169.642 90.9451 169.525 87.49C169.407 84.0349 169.157 80.4361 167.969 77.1809C167.56 76.0686 167.056 75.0156 166.633 73.9099C163.818 66.5631 165.32 58.6806 164.617 51.0282C164.174 46.5405 162.429 42.2791 159.598 38.7652C158.418 37.2974 157.102 36.239 156.285 34.4462C155.553 32.7693 155.155 30.9085 154.076 29.4355C153.086 28.2029 151.788 27.2529 150.313 26.6813C147.393 25.4931 144.302 24.7753 141.157 24.5547C139.301 24.3718 137.398 24.2557 135.701 23.4344C134.927 23.106 134.281 22.5353 133.86 21.8084C133.649 21.4305 133.55 20.9999 133.575 20.5675C133.601 20.1352 133.75 19.7192 134.005 19.3689C134.278 19.0894 134.603 18.8652 134.961 18.7087C136.526 17.9295 138.199 17.2395 139.428 15.9359C140.656 14.6323 141.304 12.4499 140.395 10.8782C140.094 10.4154 139.69 10.0276 139.215 9.74455C138.741 9.46153 138.207 9.29082 137.656 9.24551C136.559 9.18622 135.462 9.35351 134.433 9.73691C129.973 11.1541 125.799 13.7897 121.179 14.1388C119.9 14.2343 118.618 14.1545 117.34 14.2163C116.188 14.2723 115.043 14.4199 113.915 14.6575C108.954 15.6625 104.362 18.2581 99.8091 20.4496C97.9525 21.2323 96.1626 22.1642 94.4571 23.2361C93.0916 24.187 91.2254 24.7391 89.6512 23.8388C87.1653 22.4526 87.5223 19.3621 83.9644 19.6394C81.3602 19.8433 79.0843 21.5899 77.1506 23.49C70.3822 30.1809 66.1687 39.5135 64.3079 49.1916C62.9379 56.3274 61.9537 65.2159 63.6847 72.3576C64.0921 74.0296 64.6655 75.893 63.8661 77.3919C62.9216 77.7555 61.9112 77.0997 61.1789 76.3738C60.4465 75.6479 59.7029 74.7734 58.7123 74.6035C57.3646 74.3675 56.0892 75.6164 55.7977 77.042C55.5911 78.4903 55.9119 79.9646 56.7017 81.1969C57.2346 82.1391 57.9048 82.997 58.6905 83.7424C60.0229 85.0034 61.7056 85.8851 62.8729 87.3392C63.8237 88.5452 64.3818 90.0129 64.4721 91.5449C64.5758 93.1922 64.1901 95.0413 65.1164 96.3502C65.473 96.7861 65.9223 97.1372 66.4317 97.3782C66.9411 97.6191 67.4979 97.7438 68.0616 97.7432C69.1632 97.7124 70.2657 97.7424 71.364 97.833C73.3319 98.1659 74.9731 99.5597 76.6655 100.691C80.144 103.124 84.3501 104.298 88.5878 104.019C87.6474 104.106 85.6267 102.336 84.858 101.785C83.5899 100.884 82.3982 99.8802 81.295 98.7841C79.5507 97.0583 78.3365 94.2141 77.3438 91.9262C74.809 86.1651 74.1945 79.7438 75.5907 73.608C76.0018 71.8672 76.4864 69.7363 75.2821 68.4907C74.95 68.1931 74.6024 67.9133 74.2407 67.6523C73.4869 66.9849 72.9793 66.0843 72.7993 65.0947Z" fill="url(#paint7_radial)"/>
        <path d="M80.8358 87.0213C80.9993 86.8097 81.196 86.6259 81.4182 86.477C81.8226 86.2285 82.2854 86.0909 82.76 86.0778C83.2346 86.0648 83.7043 86.1769 84.1218 86.4027C84.9862 86.8922 85.6818 87.6315 86.117 88.5234C87.3391 90.8349 87.4372 93.3118 87.8516 95.8675C88.1553 97.6999 88.8091 99.6117 90.2393 100.658C85.5596 100.049 81.416 96.1153 80.2465 91.1876C79.9624 89.8546 79.968 88.1213 80.8358 87.0213Z" fill="url(#paint8_radial)"/>
        <path d="M54.7396 66.4841C54.1773 67.308 53.8585 68.2732 53.8196 69.2695C53.8025 70.4158 54.5299 71.9241 55.7247 71.9959C55.9959 72.001 56.2639 71.936 56.5026 71.8072C56.7413 71.6784 56.9426 71.4902 57.0869 71.2608C57.3235 70.7777 57.5034 70.2689 57.623 69.7445C57.8751 69.1547 58.2536 68.695 58.445 68.0908C58.575 67.6615 58.576 67.2036 58.448 66.7737C58.3199 66.3438 58.0683 65.9608 57.7245 65.6721C57.3773 65.4148 56.9531 65.2825 56.5209 65.2968C56.0888 65.3112 55.6743 65.4714 55.3451 65.7512C55.1096 65.9658 54.9058 66.2125 54.7396 66.4841Z" fill="url(#paint9_radial)"/>
        <path d="M92.3816 20.6222C92.1073 20.412 91.8652 20.163 91.6629 19.883C91.3894 19.6231 91.0693 19.4169 90.7194 19.2753C90.0203 19.0096 89.381 18.608 88.8385 18.0939C88.3661 17.5162 88.0904 16.8033 88.0515 16.0586C88.0228 15.5713 88.1209 15.0848 88.3361 14.6465C88.5553 14.2753 88.8605 13.962 89.2259 13.7328C89.5914 13.5036 90.0066 13.3651 90.4367 13.3289C91.7515 13.147 93.0897 13.4042 94.243 14.0603C95.6874 15.0599 96.1774 17.5358 95.3232 19.0879C94.9177 19.8286 94.2451 20.3876 93.4418 20.6515C93.119 20.7743 92.7612 20.769 92.4421 20.6366C92.4216 20.6335 92.4013 20.6287 92.3816 20.6222Z" fill="url(#paint10_radial)"/>
        <path d="M82.5013 18.08C82.1237 18.1766 81.7304 18.1959 81.3451 18.1369C80.9315 18.1735 80.5152 18.1094 80.1318 17.9501C79.7413 17.746 79.4318 17.4156 79.254 17.013C79.1328 16.7462 79.0836 16.4525 79.1113 16.161C79.1861 15.8189 79.3538 15.5039 79.5959 15.2506C79.838 14.9972 80.1453 14.8153 80.484 14.7246C80.8374 14.5663 81.2289 14.5124 81.612 14.5693C81.9952 14.6262 82.354 14.7915 82.6459 15.0457C82.9378 15.2999 83.1507 15.6323 83.2593 16.0035C83.3679 16.3747 83.3676 16.7692 83.2585 17.1403C83.2229 17.3243 83.1492 17.4989 83.0422 17.6529C82.9352 17.8069 82.7973 17.937 82.6371 18.0348C82.5936 18.0546 82.548 18.0698 82.5013 18.08Z" fill="url(#paint11_radial)"/>
        <path d="M161.683 116.727C161.541 117.053 161.344 117.354 161.102 117.615C160.771 117.879 160.351 118.005 159.93 117.966C159.508 117.927 159.118 117.726 158.842 117.406C158.272 116.715 157.988 115.832 158.048 114.939C158.133 113.66 158.421 112.403 158.9 111.215L160.073 107.799C160.447 106.712 160.607 105.541 161.676 104.984C162.393 104.666 163.176 104.523 163.959 104.566C164.74 104.607 165.523 104.527 166.28 104.331C166.707 104.123 167.166 103.989 167.637 103.933C167.937 103.954 168.226 104.054 168.475 104.222C168.724 104.391 168.924 104.621 169.055 104.892C169.327 105.46 169.443 106.09 169.393 106.718C169.324 107.908 168.863 109.042 168.081 109.942C167.071 111.074 165.684 111.64 164.515 112.533C163.224 113.539 162.435 115.234 161.683 116.727Z" fill="url(#paint12_radial)"/>
        <path d="M154.912 119.054C156.012 120.52 154.932 123.175 153.318 123.576C152.999 123.68 152.654 123.667 152.345 123.538C152.036 123.41 151.783 123.175 151.632 122.876C151.569 122.576 151.567 122.266 151.627 121.966C151.688 121.665 151.808 121.38 151.983 121.128L152.818 119.488C152.964 119.145 153.203 118.85 153.506 118.635C153.735 118.529 153.993 118.503 154.238 118.564C154.482 118.624 154.699 118.765 154.853 118.965L154.912 119.054Z" fill="url(#paint13_radial)"/>
    </g>
    <g filter="url(#filter3_d)">
        <mask id="path-16-outside-1" maskUnits="userSpaceOnUse" x="31.6758" y="26.6382" width="195" height="118" fill="black">
            <rect fill="white" x="31.6758" y="26.6382" width="195" height="118"/>
            <path fill-rule="evenodd" clip-rule="evenodd" d="M176.787 91.4846C177.04 89.4315 177.171 87.3402 177.171 85.2183C177.171 57.2837 154.526 34.6382 126.591 34.6382C100.234 34.6382 78.5861 54.7975 76.2244 80.5382C74.2942 78.286 72.8658 76.041 72.0883 73.8634C68.4678 63.7235 74.3386 60.1203 79.5205 57.7604C83.8559 55.7859 78.6947 54.8701 74.279 56.1988C64.4286 59.163 56.6695 68.1791 69.7708 82.151C71.5562 84.0551 73.6921 85.8951 76.0686 87.6583C76.5056 96.858 79.4002 105.414 84.1106 112.684C73.1401 112.263 63.4285 110.712 57.0175 107.848C44.9332 102.449 56.1391 94.9792 64.0627 89.697C65.0109 89.0649 65.912 88.4642 66.7207 87.9021C76.6218 78.1236 55.2967 84.7354 45.505 95.4029C35.7133 106.07 36.381 115.627 62.1954 118.738C69.8252 119.658 78.9907 119.335 88.3705 118.349C97.6444 129.038 111.328 135.798 126.591 135.798C143.207 135.798 157.952 127.786 167.173 115.414C169.832 115.457 172.451 115.407 174.981 115.244C194.69 113.975 204.16 102.095 190.378 88.4747C195.115 86.0873 199.656 83.5663 203.73 80.9573C224.203 67.8452 224.426 52.5107 197.499 50.2883C170.572 48.0659 165.231 56.511 174.132 56.2888C183.034 56.0665 213.482 57.8927 205.248 70.5603C202.15 75.3273 195.62 80.555 187.329 85.6124C175.915 75.3144 177.245 81.6851 182.191 85.2182C182.942 85.7543 183.73 86.4603 184.495 87.2955C182.039 88.716 179.457 90.1172 176.787 91.4846ZM170.115 111.002C173 106.143 175.094 100.76 176.22 95.0303C179.724 93.5295 183.261 91.9364 186.732 90.2681C190.006 95.599 191.083 103.13 182.191 107.672C179.048 109.278 174.887 110.363 170.115 111.002Z"/>
        </mask>
        <path fill-rule="evenodd" clip-rule="evenodd" d="M176.787 91.4846C177.04 89.4315 177.171 87.3402 177.171 85.2183C177.171 57.2837 154.526 34.6382 126.591 34.6382C100.234 34.6382 78.5861 54.7975 76.2244 80.5382C74.2942 78.286 72.8658 76.041 72.0883 73.8634C68.4678 63.7235 74.3386 60.1203 79.5205 57.7604C83.8559 55.7859 78.6947 54.8701 74.279 56.1988C64.4286 59.163 56.6695 68.1791 69.7708 82.151C71.5562 84.0551 73.6921 85.8951 76.0686 87.6583C76.5056 96.858 79.4002 105.414 84.1106 112.684C73.1401 112.263 63.4285 110.712 57.0175 107.848C44.9332 102.449 56.1391 94.9792 64.0627 89.697C65.0109 89.0649 65.912 88.4642 66.7207 87.9021C76.6218 78.1236 55.2967 84.7354 45.505 95.4029C35.7133 106.07 36.381 115.627 62.1954 118.738C69.8252 119.658 78.9907 119.335 88.3705 118.349C97.6444 129.038 111.328 135.798 126.591 135.798C143.207 135.798 157.952 127.786 167.173 115.414C169.832 115.457 172.451 115.407 174.981 115.244C194.69 113.975 204.16 102.095 190.378 88.4747C195.115 86.0873 199.656 83.5663 203.73 80.9573C224.203 67.8452 224.426 52.5107 197.499 50.2883C170.572 48.0659 165.231 56.511 174.132 56.2888C183.034 56.0665 213.482 57.8927 205.248 70.5603C202.15 75.3273 195.62 80.555 187.329 85.6124C175.915 75.3144 177.245 81.6851 182.191 85.2182C182.942 85.7543 183.73 86.4603 184.495 87.2955C182.039 88.716 179.457 90.1172 176.787 91.4846ZM170.115 111.002C173 106.143 175.094 100.76 176.22 95.0303C179.724 93.5295 183.261 91.9364 186.732 90.2681C190.006 95.599 191.083 103.13 182.191 107.672C179.048 109.278 174.887 110.363 170.115 111.002Z" fill="white"/>
        <path d="M176.787 91.4846L168.847 90.5036L166.996 105.486L180.433 98.6054L176.787 91.4846ZM76.2244 80.5382L70.1501 85.7442L82.4624 100.11L84.191 81.2691L76.2244 80.5382ZM72.0883 73.8634L79.6225 71.1733L79.6225 71.1733L72.0883 73.8634ZM79.5205 57.7604L82.8362 65.0409V65.0409L79.5205 57.7604ZM74.279 56.1988L71.9738 48.5382L71.9737 48.5382L74.279 56.1988ZM69.7708 82.151L75.6065 76.6789L69.7708 82.151ZM76.0686 87.6583L84.0596 87.2788L83.8798 83.4923L80.8354 81.2336L76.0686 87.6583ZM84.1106 112.684L83.8034 120.678L99.2057 121.27L90.8246 108.334L84.1106 112.684ZM57.0175 107.848L60.2808 100.544H60.2808L57.0175 107.848ZM64.0627 89.697L59.6253 83.0405L59.6253 83.0405L64.0627 89.697ZM66.7207 87.9021L71.2869 94.4709L71.8523 94.0779L72.3422 93.5941L66.7207 87.9021ZM45.505 95.4029L39.6114 89.9931L45.505 95.4029ZM62.1954 118.738L63.1527 110.795L62.1954 118.738ZM88.3705 118.349L94.4133 113.106L91.6809 109.957L87.5342 110.393L88.3705 118.349ZM167.173 115.414L167.3 107.415L163.206 107.35L160.758 110.633L167.173 115.414ZM174.981 115.244L174.467 107.261L174.981 115.244ZM190.378 88.4747L186.778 81.3306L176.837 86.3403L184.754 94.165L190.378 88.4747ZM203.73 80.9573L199.415 74.2205L203.73 80.9573ZM174.132 56.2888L173.932 48.2913L174.132 56.2888ZM205.248 70.5603L211.956 74.9202V74.9202L205.248 70.5603ZM187.329 85.6124L181.971 91.5524L186.401 95.5494L191.495 92.4421L187.329 85.6124ZM182.191 85.2182L186.842 78.7085L186.842 78.7085L182.191 85.2182ZM184.495 87.2955L188.501 94.2203L197.118 89.2351L190.395 81.8928L184.495 87.2955ZM176.22 95.0303L173.07 87.6766L169.185 89.3407L168.37 93.4872L176.22 95.0303ZM170.115 111.002L163.236 106.918L154.804 121.121L171.176 118.931L170.115 111.002ZM186.732 90.2681L193.55 86.0822L189.773 79.9309L183.267 83.0577L186.732 90.2681ZM182.191 107.672L178.552 100.548H178.552L182.191 107.672ZM169.171 85.2183C169.171 87.0114 169.061 88.7751 168.847 90.5036L184.726 92.4657C185.02 90.0878 185.171 87.6689 185.171 85.2183H169.171ZM126.591 42.6382C150.107 42.6382 169.171 61.702 169.171 85.2183H185.171C185.171 52.8654 158.944 26.6382 126.591 26.6382V42.6382ZM84.191 81.2691C86.1783 59.6082 104.407 42.6382 126.591 42.6382V26.6382C96.0611 26.6382 70.9938 49.9869 68.2579 79.8072L84.191 81.2691ZM64.5542 76.5535C65.7671 79.9505 67.8291 83.036 70.1501 85.7442L82.2988 75.3322C80.7593 73.5359 79.9646 72.1315 79.6225 71.1733L64.5542 76.5535ZM76.2048 50.4798C73.5504 51.6887 68.8968 53.939 65.8729 58.4183C62.4229 63.529 62.1331 69.7727 64.5542 76.5535L79.6225 71.1733C78.9908 69.4043 78.9445 68.394 78.9751 67.9432C79.0004 67.5703 79.0807 67.4496 79.1341 67.3705C79.2339 67.2226 79.4979 66.9117 80.1506 66.4696C80.8195 66.0165 81.6817 65.5667 82.8362 65.0409L76.2048 50.4798ZM76.5842 63.8595C77.8745 63.4713 78.7824 63.6315 78.3281 63.5233C78.2058 63.4942 77.23 63.2751 76.1205 62.44C74.8 61.446 72.6413 58.9164 73.2592 55.1885C73.7234 52.3872 75.5187 50.9883 75.734 50.8166C76.1865 50.4559 76.4473 50.3694 76.2048 50.4798L82.8362 65.0409C83.6775 64.6577 84.7254 64.1108 85.7083 63.3272C86.4539 62.7327 88.5227 60.9487 89.0438 57.8047C89.7185 53.734 87.3998 50.904 85.7426 49.6566C84.2964 48.568 82.8072 48.1425 82.0348 47.9586C78.9797 47.231 75.0992 47.5977 71.9738 48.5382L76.5842 63.8595ZM75.6065 76.6789C70.0075 70.7077 70.8553 68.0137 70.967 67.6953C71.288 66.7801 72.8104 64.9951 76.5842 63.8595L71.9737 48.5382C65.8972 50.3667 58.6148 54.5719 55.869 62.3988C52.9139 70.8224 56.4328 79.6224 63.9351 87.6231L75.6065 76.6789ZM80.8354 81.2336C78.74 79.6788 76.9875 78.1516 75.6065 76.6789L63.9351 87.6231C66.125 89.9586 68.6443 92.1113 71.3018 94.083L80.8354 81.2336ZM90.8246 108.334C86.8613 102.217 84.4275 95.0252 84.0596 87.2788L68.0776 88.0378C68.5836 98.6908 71.9392 108.611 77.3966 117.034L90.8246 108.334ZM53.7543 115.152C61.5825 118.65 72.5289 120.245 83.8034 120.678L84.4178 104.69C73.7513 104.28 65.2744 102.775 60.2808 100.544L53.7543 115.152ZM59.6253 83.0405C57.6867 84.3328 55.263 85.9445 53.027 87.673C50.8673 89.3425 48.354 91.5146 46.5213 94.0874C44.7174 96.6198 42.6054 100.981 44.3329 106.056C45.9399 110.776 50.041 113.493 53.7543 115.152L60.2808 100.544C57.952 99.5036 58.9221 99.2627 59.4792 100.899C60.1567 102.889 59.0756 104.041 59.553 103.37C60.0017 102.74 61.0202 101.717 62.8125 100.332C64.5286 99.0052 66.4769 97.7023 68.5002 96.3535L59.6253 83.0405ZM62.1544 81.3333C61.4221 81.8423 60.5896 82.3976 59.6253 83.0405L68.5002 96.3535C69.4322 95.7322 70.402 95.0861 71.2869 94.4709L62.1544 81.3333ZM51.3986 100.813C55.1894 96.6827 61.7054 93.0085 66.0166 91.5783C67.0447 91.2372 67.6168 91.1383 67.7674 91.1226C67.8437 91.1147 67.5752 91.1543 67.0825 91.0873C66.665 91.0306 65.3977 90.8088 64.0609 89.7733C62.4484 88.5244 61.4504 86.6371 61.301 84.6483C61.1776 83.0055 61.6712 81.8783 61.8142 81.5744C62.0823 81.0043 62.1524 81.17 61.0992 82.2101L72.3422 93.5941C73.7643 92.1896 75.3338 90.4228 76.2926 88.3843C76.7809 87.3462 77.4176 85.6008 77.2561 83.4497C77.0685 80.9528 75.851 78.6672 73.8586 77.124C72.1418 75.7942 70.3341 75.3821 69.2367 75.233C68.0641 75.0737 66.9761 75.1187 66.1142 75.2083C64.3884 75.3876 62.6094 75.8512 60.9787 76.3921C54.6547 78.4901 45.6123 83.4555 39.6114 89.9931L51.3986 100.813ZM63.1527 110.795C57.0922 110.065 53.0265 109.009 50.4417 107.914C47.8018 106.795 47.4658 105.967 47.5731 106.17C47.8167 106.632 47.5116 106.809 47.8483 105.905C48.2523 104.821 49.294 103.105 51.3986 100.813L39.6114 89.9931C36.8202 93.0339 34.2735 96.5131 32.8555 100.318C31.3701 104.304 31.0094 109.065 33.4227 113.638C35.6998 117.953 39.759 120.764 44.1985 122.645C48.6932 124.55 54.3914 125.855 61.2381 126.68L63.1527 110.795ZM87.5342 110.393C78.4181 111.351 69.9276 111.612 63.1527 110.795L61.2381 126.68C69.7227 127.703 79.5632 127.319 89.2067 126.305L87.5342 110.393ZM126.591 127.798C113.744 127.798 102.232 122.119 94.4133 113.106L82.3277 123.591C93.0564 135.958 108.913 143.798 126.591 143.798V127.798ZM160.758 110.633C152.982 121.067 140.574 127.798 126.591 127.798V143.798C145.841 143.798 162.922 134.505 173.587 120.195L160.758 110.633ZM174.467 107.261C172.183 107.408 169.781 107.455 167.3 107.415L167.045 123.413C169.883 123.458 172.719 123.407 175.495 123.228L174.467 107.261ZM184.754 94.165C187.524 96.9022 188.501 98.9514 188.785 100.118C189.017 101.069 188.862 101.618 188.511 102.162C187.457 103.801 183.381 106.687 174.467 107.261L175.495 123.228C186.291 122.532 196.804 118.844 201.967 110.82C204.724 106.533 205.584 101.478 204.331 96.3324C203.13 91.4009 200.123 86.8575 196.001 82.7845L184.754 94.165ZM199.415 74.2205C195.631 76.6443 191.341 79.031 186.778 81.3306L193.978 95.6189C198.89 93.1435 203.681 90.4883 208.044 87.6941L199.415 74.2205ZM196.841 58.2612C202.955 58.7658 206.711 59.9678 208.764 61.1322C209.746 61.6893 210.175 62.1453 210.336 62.3566C210.414 62.4596 210.44 62.518 210.446 62.532C210.451 62.5446 210.454 62.5538 210.457 62.5752C210.463 62.6226 210.555 63.772 208.773 66.156C207.042 68.4713 204.011 71.2774 199.415 74.2205L208.044 87.6941C213.686 84.0811 218.36 80.0534 221.587 75.7363C224.764 71.4878 227.067 66.2061 226.322 60.5031C225.537 54.4898 221.65 50.0475 216.659 47.2159C211.819 44.4702 205.506 42.922 198.157 42.3154L196.841 58.2612ZM173.932 48.2913C173.354 48.3057 173.411 48.2259 173.875 48.3716C174.069 48.4328 176.296 49.1234 177.522 51.8183C179.042 55.1572 177.525 57.9321 176.79 58.8623C176.124 59.7052 175.591 59.8781 175.976 59.6847C177.587 58.8741 183.868 57.1905 196.841 58.2612L198.157 42.3154C184.202 41.1637 174.35 42.5915 168.784 45.3922C167.374 46.1017 165.607 47.2087 164.237 48.9414C162.799 50.7614 161.11 54.3819 162.96 58.4465C164.517 61.8672 167.576 63.1637 169.077 63.6355C170.848 64.1919 172.685 64.3274 174.332 64.2863L173.932 48.2913ZM211.956 74.9202C213.599 72.3928 214.799 69.3309 214.631 65.9087C214.457 62.3774 212.881 59.536 210.936 57.47C207.458 53.7774 202.226 51.9194 198.14 50.851C189.434 48.5747 178.767 48.1706 173.932 48.2913L174.332 64.2863C178.399 64.1847 187.407 64.5826 194.092 66.3306C195.708 66.7531 197.005 67.2089 197.971 67.6621C198.985 68.1374 199.304 68.4565 199.288 68.4399C199.178 68.3231 198.7 67.7009 198.65 66.6933C198.606 65.7947 198.956 65.5609 198.541 66.2004L211.956 74.9202ZM191.495 92.4421C199.947 87.2865 207.818 81.2856 211.956 74.9202L198.541 66.2004C196.481 69.369 191.294 73.8235 183.163 78.7827L191.495 92.4421ZM186.842 78.7085C186.326 78.3405 185.984 77.9387 185.894 77.8071C185.829 77.7138 186.04 77.9823 186.24 78.597C186.27 78.6865 187.298 81.5042 185.372 84.5267C182.858 88.4741 178.743 88.0379 178.028 87.915C177.075 87.7512 176.668 87.4408 177.069 87.6684C177.721 88.038 179.273 89.1183 181.971 91.5524L192.688 79.6724C189.679 76.9575 187.116 74.9724 184.962 73.7505C183.96 73.1825 182.476 72.4449 180.738 72.1462C179.238 71.8884 174.63 71.6096 171.878 75.9305C169.714 79.3265 170.76 82.7339 171.027 83.5529C171.465 84.8973 172.134 86.0352 172.711 86.8751C173.905 88.6099 175.583 90.3293 177.541 91.7279L186.842 78.7085ZM190.395 81.8928C189.314 80.713 188.114 79.6178 186.842 78.7085L177.541 91.7278C177.769 91.8908 178.146 92.2077 178.595 92.6982L190.395 81.8928ZM180.433 98.6054C183.214 97.1816 185.916 95.7154 188.501 94.2203L180.489 80.3708C178.162 81.7166 175.701 83.0527 173.141 84.3638L180.433 98.6054ZM168.37 93.4872C167.423 98.3035 165.664 102.829 163.236 106.918L176.994 115.086C180.336 109.457 182.764 103.217 184.07 96.5734L168.37 93.4872ZM183.267 83.0577C179.915 84.6689 176.483 86.2143 173.07 87.6766L179.37 102.384C182.964 100.845 186.608 99.204 190.198 97.4786L183.267 83.0577ZM185.831 114.796C192.189 111.548 196.096 106.499 196.948 100.366C197.726 94.7623 195.747 89.66 193.55 86.0822L179.915 94.4541C180.991 96.2071 181.187 97.5356 181.1 98.1651C181.068 98.3935 180.996 98.6164 180.771 98.909C180.522 99.2328 179.92 99.8487 178.552 100.548L185.831 114.796ZM171.176 118.931C176.406 118.232 181.561 116.977 185.831 114.796L178.552 100.548C176.535 101.578 173.368 102.495 169.055 103.072L171.176 118.931Z" fill="white" mask="url(#path-16-outside-1)"/>
    </g>
    <g filter="url(#filter4_d)">
        <circle cx="126.591" cy="85.2186" r="50.5801" fill="#FFBACA"/>
    </g>
    <g filter="url(#filter5_d)">
        <ellipse cx="126.385" cy="82.9473" rx="47.8963" ry="46.2447" fill="#BFA397"/>
        <ellipse cx="126.385" cy="82.9473" rx="47.8963" ry="46.2447" fill="url(#paint14_linear)"/>
    </g>
    <g filter="url(#filter6_d)">
        <path d="M126.743 64.6746C118.884 61.2 119.016 53.9694 111.727 49.2961C107.002 46.2674 96.2148 47.3987 96.5858 46.6383C96.9568 45.8779 111.4 44.6351 116.889 47.6482C124.938 52.0668 121.31 57.8121 142.963 68.5198C149.905 71.9529 133.774 67.783 126.743 64.6746Z" fill="#FF3C6B"/>
    </g>
    <g filter="url(#filter7_d)">
        <path d="M158.433 116.875C153.391 117.49 150.813 115.976 145.438 115.178C141.955 114.66 137.029 115.699 136.821 114.798C136.614 113.896 143.052 110.941 146.856 111.064C152.433 111.246 152.798 113.091 167.234 112.466C171.863 112.266 162.943 116.324 158.433 116.875Z" fill="#FF3C6B"/>
    </g>
    <g filter="url(#filter8_d)">
        <path d="M127.1 98.4454C117.42 94.1484 116.592 86.2485 109.342 79.0357C104.292 74.0122 89.6959 73.2353 90.1441 72.3167C90.5924 71.398 107.096 69.9821 112.14 75.7218C124.114 89.3475 126.534 93.9369 148.071 99.4684C156.781 101.705 135.76 102.289 127.1 98.4454Z" fill="#FF3C6B"/>
    </g>
    <g filter="url(#filter9_d)">
        <path d="M95.1598 112.692C101.205 115.68 104.829 116.535 111.497 116.273C116.142 116.091 123.13 118.851 123.45 118.014C123.769 117.176 117.04 112.559 112.192 112.559C99.7525 112.559 97.0687 111.85 86.5059 101.035C82.3995 96.8304 89.7522 110.019 95.1598 112.692Z" fill="#FF3C6B"/>
    </g>
    <g filter="url(#filter10_d)">
        <path d="M144.346 44.135C150.394 47.1092 151.139 51.6841 155.729 56.6901C158.925 60.1767 165.712 63.1299 165.449 63.7695C165.185 64.4092 157.454 62.7259 154.049 58.9994C143.107 47.0253 144.346 47.0253 129.236 44.9714C123.747 44.2253 138.935 41.4743 144.346 44.135Z" fill="#FF3C6B"/>
    </g>
    <g filter="url(#filter11_d)">
        <path d="M150.583 84.3868C157.096 85.3418 161.627 81.1385 167.893 80.7701C171.954 80.5314 177.151 85.3362 176.987 84.4921C176.823 83.648 171.5 77.1547 167.055 77.5742C155.838 78.6327 152.018 81.316 137.972 77.5742C132.23 76.0448 144.757 83.5325 150.583 84.3868Z" fill="#FF3C6B"/>
    </g>
    <g filter="url(#filter12_d)">
        <path d="M88.0703 86.6218C84.9139 83.5542 84.7508 81.2365 82.5851 77.36C81.1815 74.8476 77.1877 71.9898 77.8219 71.4774C78.4562 70.9649 83.6405 72.6807 85.07 75.5448C88.6774 82.7717 89.5945 83.5864 97.5399 88.9928C100.788 91.2026 90.8939 89.3661 88.0703 86.6218Z" fill="#FF3C6B"/>
    </g>
    <g filter="url(#filter13_d)">
        <mask id="mask0" maskUnits="userSpaceOnUse" x="74" y="33" width="106" height="103">
            <ellipse cx="126.932" cy="84.6048" rx="52.1598" ry="50.7923" fill="#000E89"/>
        </mask>
        <g mask="url(#mask0)">
            <path fill-rule="evenodd" clip-rule="evenodd" d="M76.5737 159.788C92.0269 154.608 97.431 152.101 100.577 147.608C106.094 139.728 99.8288 131.214 93.9453 130.76C88.0028 130.3 81.9646 131.29 84.1463 125.656C86.2517 120.221 89.1752 125.794 91.1894 126.147C93.2031 126.5 76.5304 129.796 76.5737 119.769C76.6167 109.742 76.656 108.465 66.5989 108.633C56.5419 108.801 68.9339 111.796 72.4279 99.6717C74.8888 79.1704 86.1875 83.2157 91.5268 88.082C95.8249 91.9992 95.9504 102.229 99.1986 101.673C102.447 101.118 107.408 93.4875 103.873 83.1478C100.338 72.8083 101.693 63.8036 108.652 61.9606C115.61 60.1182 113.437 74.0671 111.661 78.0885C109.884 82.1103 111.322 88.7847 114.09 88.0593C116.858 87.3339 115.887 78.3405 117.992 73.4805C120.095 68.6192 127.633 70.0853 128.155 73.2724C128.678 76.4596 122.948 78.8428 120.031 82.3545C117.115 85.8662 116.707 96.1985 117.674 99.6717C118.64 103.145 120.519 112.587 130.42 110.888C138.235 104.231 129.441 107.959 130.578 103.665C131.715 99.3707 137.654 98.6233 138.25 102.744C138.845 106.864 137.399 110.327 137.987 114.744C138.576 119.162 145.765 114.514 149.148 111.534C167.632 95.2533 181.422 113.391 164.078 125.157L149.984 173.462C128.95 175.262 107.683 177.956 87.8066 186.195C82.7696 181.418 78.2259 172.316 76.4138 166.161C76.6721 164.007 76.7365 161.89 76.5737 159.788Z" fill="#FFD1EA"/>
            <path fill-rule="evenodd" clip-rule="evenodd" d="M76.5737 159.788C92.0269 154.608 97.431 152.101 100.577 147.608C106.094 139.728 99.8288 131.214 93.9453 130.76C88.0028 130.3 81.9646 131.29 84.1463 125.656C86.2517 120.221 89.1752 125.794 91.1894 126.147C93.2031 126.5 76.5304 129.796 76.5737 119.769C76.6167 109.742 76.656 108.465 66.5989 108.633C56.5419 108.801 68.9339 111.796 72.4279 99.6717C74.8888 79.1704 86.1875 83.2157 91.5268 88.082C95.8249 91.9992 95.9504 102.229 99.1986 101.673C102.447 101.118 107.408 93.4875 103.873 83.1478C100.338 72.8083 101.693 63.8036 108.652 61.9606C115.61 60.1182 113.437 74.0671 111.661 78.0885C109.884 82.1103 111.322 88.7847 114.09 88.0593C116.858 87.3339 115.887 78.3405 117.992 73.4805C120.095 68.6192 127.633 70.0853 128.155 73.2724C128.678 76.4596 122.948 78.8428 120.031 82.3545C117.115 85.8662 116.707 96.1985 117.674 99.6717C118.64 103.145 120.519 112.587 130.42 110.888C138.235 104.231 129.441 107.959 130.578 103.665C131.715 99.3707 137.654 98.6233 138.25 102.744C138.845 106.864 137.399 110.327 137.987 114.744C138.576 119.162 145.765 114.514 149.148 111.534C167.632 95.2533 181.422 113.391 164.078 125.157L149.984 173.462C128.95 175.262 107.683 177.956 87.8066 186.195C82.7696 181.418 78.2259 172.316 76.4138 166.161C76.6721 164.007 76.7365 161.89 76.5737 159.788Z" fill="url(#paint15_linear)"/>
            <path d="M160.086 72.9528C161.587 70.8151 160.688 67.6521 158.077 65.8881C155.466 64.124 151.638 65.1306 150.136 67.2683C149.114 68.7229 148.163 71.1499 148.482 73.1083C148.764 74.8422 150.896 75.063 152.684 75.022C155.748 74.9516 158.086 75.7992 160.086 72.9528Z" fill="#FFD1EA"/>
            <path d="M147.337 63.8241C147.345 62.3926 145.955 61.2252 144.231 61.2167C142.508 61.2082 141.102 62.833 141.094 64.2645C141.091 64.8795 141.221 65.6625 141.507 66.3564C142.183 67.9969 144.222 67.2805 145.724 66.3338C146.628 65.7638 147.33 65.214 147.337 63.8241Z" fill="#FFD1EA"/>
        </g>
    </g>
    <g filter="url(#filter14_d)">
        <circle cx="148.269" cy="18.7432" r="1.44284" transform="rotate(-125.075 148.269 18.7432)" fill="#FFCFD2"/>
        <circle cx="93.1034" cy="19.4576" r="1.44284" transform="rotate(-125.075 93.1034 19.4576)" fill="#FFCFD2"/>
        <circle cx="173.106" cy="16.6515" r="1.11457" transform="rotate(-125.075 173.106 16.6515)" fill="#FFCFD2"/>
        <circle cx="59.2412" cy="82.0645" r="1.11457" transform="rotate(-125.075 59.2412 82.0645)" fill="#FFCFD2"/>
        <circle cx="168.632" cy="30.3405" r="2.47644" transform="rotate(-125.075 168.632 30.3405)" fill="#FFCFD2"/>
        <circle cx="55.4557" cy="71.3678" r="2.47644" transform="rotate(-125.075 55.4557 71.3678)" fill="#FFCFD2"/>
        <circle cx="97.4169" cy="25.3795" r="2.47644" transform="rotate(-125.075 97.4169 25.3795)" fill="#FFCFD2"/>
        <circle cx="84.0815" cy="26.4145" r="3.6117" transform="rotate(-125.075 84.0815 26.4145)" fill="#FFCFD2"/>
        <circle cx="196.661" cy="84.2449" r="2.38889" transform="rotate(-125.075 196.661 84.2449)" fill="#FFCFD2"/>
    </g>
    <g filter="url(#filter15_d)">
        <path d="M72.0885 73.8637C68.468 63.7238 74.3388 60.1206 79.5207 57.7607C83.8561 55.7863 78.6949 54.8704 74.2792 56.1992C64.4288 59.1633 56.6697 68.1794 69.771 82.1513C82.8723 96.1232 114.843 106.644 122.289 108.715C129.736 110.786 155.108 116.525 174.981 115.245C194.855 113.964 204.318 101.897 190.029 88.1345C175.74 74.3721 176.886 81.4282 182.192 85.2185C187.498 89.0088 194.685 101.29 182.192 107.672C169.698 114.054 141.152 112.221 121.952 106.735C102.751 101.249 76.5765 86.4333 72.0885 73.8637Z" fill="#FFDDDF"/>
    </g>
    <g filter="url(#filter16_d)">
        <path d="M57.0173 107.848C43.487 101.804 59.1541 93.1619 66.7204 87.9023C76.6216 78.1237 55.2965 84.7355 45.5048 95.403C35.7131 106.07 36.3807 115.627 62.1952 118.738C88.0096 121.849 131.405 110.738 141.196 107.848C150.988 104.959 183.256 94.0696 203.73 80.9575C224.203 67.8454 224.426 52.5109 197.498 50.2885C170.571 48.0661 165.23 56.5112 174.132 56.2889C183.033 56.0667 213.482 57.8929 205.248 70.5605C197.014 83.2281 164.554 99.1488 139.184 106.483C113.815 113.817 73.9302 115.405 57.0173 107.848Z" fill="#FFB4B9"/>
    </g>
    <g filter="url(#filter17_d)">
        <circle cx="91.8047" cy="123.206" r="1.62618" transform="rotate(63.546 91.8047 123.206)" fill="white"/>
    </g>
    <g filter="url(#filter18_d)">
        <circle cx="217.303" cy="75.2892" r="1.62618" transform="rotate(63.546 217.303 75.2892)" fill="white"/>
    </g>
    <g filter="url(#filter19_d)">
        <circle cx="70.6217" cy="106.066" r="1.25619" transform="rotate(63.546 70.6217 106.066)" fill="white"/>
    </g>
    <g filter="url(#filter20_d)">
        <circle cx="216.505" cy="51.0788" r="1.25619" transform="rotate(63.546 216.505 51.0788)" fill="white"/>
    </g>
    <g filter="url(#filter21_d)">
        <circle cx="67.6129" cy="122.948" r="2.79112" transform="rotate(63.546 67.6129 122.948)" fill="white"/>
    </g>
    <g filter="url(#filter22_d)">
        <circle cx="213.497" cy="67.9612" r="2.79112" transform="rotate(63.546 213.497 67.9612)" fill="white"/>
    </g>
    <g filter="url(#filter23_d)">
        <circle cx="157.432" cy="116.706" r="4.07062" transform="rotate(63.546 157.432 116.706)" fill="white"/>
    </g>
    <g filter="url(#filter24_d)">
        <circle cx="39.7276" cy="41.6141" r="2.69244" transform="rotate(63.546 39.7276 41.6141)" fill="white"/>
    </g>
    <g filter="url(#filter25_d)">
        <path d="M160.694 38.4607C160.791 38.05 160.879 37.6157 160.954 37.1889C161.445 37.0926 161.933 36.978 162.371 36.8594C163.003 36.6882 163.703 36.463 164.292 36.1825C164.574 36.0478 164.958 35.842 165.31 35.5416C165.577 35.3127 166.358 34.5817 166.36 33.361C166.361 32.5045 165.96 31.867 165.819 31.6484C165.617 31.338 165.38 31.0626 165.174 30.8435C164.754 30.3972 164.237 29.9455 163.753 29.5558C163.38 29.2552 162.992 28.9639 162.628 28.7078C162.636 28.4252 162.638 28.1341 162.631 27.8489C162.618 27.324 162.573 26.6843 162.437 26.0868C162.368 25.789 162.257 25.4075 162.059 25.0254C161.87 24.6624 161.496 24.0904 160.798 23.7099C160.091 23.3247 159.399 23.3239 158.989 23.3654C158.557 23.409 158.172 23.5263 157.88 23.6346C157.296 23.8519 156.717 24.1741 156.239 24.4688C155.831 24.7206 155.426 24.997 155.056 25.2641C154.625 25.0959 154.176 24.9366 153.749 24.8036C153.266 24.6534 152.718 24.5067 152.206 24.4333C151.957 24.3976 151.615 24.3637 151.246 24.3922C150.974 24.4132 150.162 24.4977 149.472 25.1521C148.825 25.7653 148.672 26.5179 148.628 26.7597C148.564 27.1062 148.555 27.4381 148.56 27.6945C148.571 28.2202 148.649 28.7943 148.749 29.3218C148.844 29.8187 148.981 30.388 149.157 30.948C148.857 31.3995 148.569 31.8795 148.332 32.3169C148.057 32.8229 147.773 33.4076 147.584 33.9673C147.491 34.2403 147.387 34.6063 147.347 35.0087C147.316 35.3225 147.268 36.1556 147.806 36.9597C148.204 37.5557 148.737 37.8611 149.018 38.0007C149.34 38.1613 149.663 38.2638 149.926 38.3323C150.457 38.4705 151.036 38.5442 151.556 38.5804C151.91 38.6051 152.274 38.615 152.629 38.6095C152.895 39.0224 153.185 39.4433 153.463 39.8221C153.842 40.3383 154.294 40.9047 154.751 41.3563C154.972 41.575 155.278 41.8507 155.644 42.0753C155.904 42.2342 156.753 42.7252 157.842 42.4782L157.309 40.1256L157.842 42.4782C158.827 42.2548 159.376 41.5731 159.574 41.3033C159.825 40.9612 159.999 40.5988 160.118 40.317C160.362 39.7392 160.551 39.0667 160.694 38.4607ZM155.482 38.4392C155.482 38.4392 155.482 38.4384 155.483 38.4368C155.482 38.4385 155.482 38.4393 155.482 38.4392Z" stroke="white" stroke-width="5"/>
    </g>
    <g filter="url(#filter26_d)">
        <path d="M151.192 26.9666C151.588 26.591 154.225 27.5455 155.412 28.1479C156.288 27.413 158.846 25.4929 159.601 25.9047C160.356 26.3164 160.123 29.463 160.015 30.0458C160.674 30.2604 163.861 32.6128 163.86 33.3573C163.859 34.1019 159.863 34.9861 158.712 34.95C158.674 36.161 158.021 39.8741 157.289 40.04C156.557 40.206 154.296 36.7129 153.973 35.9394C153.061 36.2521 150.267 36.1421 149.884 35.5697C149.501 34.9972 151.28 32.0636 152.001 31.3326C151.355 30.1699 150.795 27.3422 151.192 26.9666Z" fill="url(#paint16_linear)"/>
        <path d="M151.192 26.9666C151.588 26.591 154.225 27.5455 155.412 28.1479C156.288 27.413 158.846 25.4929 159.601 25.9047C160.356 26.3164 160.123 29.463 160.015 30.0458C160.674 30.2604 163.861 32.6128 163.86 33.3573C163.859 34.1019 159.863 34.9861 158.712 34.95C158.674 36.161 158.021 39.8741 157.289 40.04C156.557 40.206 154.296 36.7129 153.973 35.9394C153.061 36.2521 150.267 36.1421 149.884 35.5697C149.501 34.9972 151.28 32.0636 152.001 31.3326C151.355 30.1699 150.795 27.3422 151.192 26.9666Z" fill="url(#paint17_linear)"/>
        <path d="M151.192 26.9666C151.588 26.591 154.225 27.5455 155.412 28.1479C156.288 27.413 158.846 25.4929 159.601 25.9047C160.356 26.3164 160.123 29.463 160.015 30.0458C160.674 30.2604 163.861 32.6128 163.86 33.3573C163.859 34.1019 159.863 34.9861 158.712 34.95C158.674 36.161 158.021 39.8741 157.289 40.04C156.557 40.206 154.296 36.7129 153.973 35.9394C153.061 36.2521 150.267 36.1421 149.884 35.5697C149.501 34.9972 151.28 32.0636 152.001 31.3326C151.355 30.1699 150.795 27.3422 151.192 26.9666Z" fill="url(#paint18_linear)"/>
    </g>
    <g filter="url(#filter27_d)">
        <path d="M71.8002 143.52C71.8896 144.289 72.0183 145.114 72.1746 145.869C72.3121 146.533 72.4904 147.24 72.719 147.84C72.8307 148.134 72.9902 148.498 73.218 148.844C73.3917 149.107 73.8839 149.8 74.8161 150.094C75.6912 150.371 76.4586 150.135 76.7347 150.043C77.1117 149.916 77.4568 149.738 77.7345 149.577C78.3011 149.248 78.8989 148.804 79.4472 148.348C80.0762 147.824 80.7704 147.174 81.3755 146.5C82.2124 146.586 83.1395 146.626 83.9654 146.619C84.7379 146.613 85.5753 146.565 86.3035 146.433C86.6606 146.368 87.0944 146.265 87.514 146.084C87.8519 145.937 88.638 145.551 89.0958 144.661C89.4389 143.994 89.4534 143.339 89.4374 142.977C89.4194 142.567 89.3425 142.177 89.2585 141.85C89.0893 141.192 88.8152 140.499 88.5244 139.876C88.2512 139.29 87.9324 138.7 87.6027 138.171C87.994 137.469 88.4018 136.67 88.7462 135.922C89.1087 135.134 89.4679 134.259 89.6881 133.473C89.7956 133.09 89.9029 132.615 89.9241 132.126C89.9399 131.762 89.9487 130.736 89.1803 129.876L87.3158 131.541L89.1803 129.876C88.4832 129.095 87.5786 128.93 87.1897 128.88C86.7119 128.819 86.2394 128.844 85.8541 128.885C85.0682 128.969 84.1855 129.176 83.3765 129.404C82.6149 129.618 81.8156 129.882 81.0849 130.151C80.5458 129.476 79.9334 128.784 79.3575 128.191C78.7425 127.558 78.0458 126.908 77.3784 126.431C77.0554 126.2 76.6272 125.928 76.1411 125.747C75.758 125.603 74.6965 125.272 73.5965 125.879C72.8154 126.311 72.4214 127.009 72.2697 127.294C72.0666 127.676 71.9127 128.089 71.7944 128.458C71.5544 129.207 71.3634 130.089 71.2199 130.915C71.0764 131.741 70.968 132.585 70.9061 133.305C70.4334 133.536 69.9262 133.804 69.4438 134.087C68.8395 134.442 68.1572 134.889 67.5942 135.393C67.3134 135.645 66.9899 135.974 66.7214 136.379C66.4648 136.765 66.1293 137.415 66.135 138.251C66.1407 139.097 66.4936 139.747 66.7605 140.132C67.0399 140.534 67.3748 140.861 67.6669 141.112C68.2527 141.614 68.969 142.064 69.6248 142.432C70.3462 142.837 71.1163 143.212 71.8002 143.52Z" stroke="white" stroke-width="5"/>
    </g>
    <g filter="url(#filter28_d)">
        <path d="M75.5695 147.711C74.8481 147.483 74.2335 143.646 74.1666 141.804C72.6874 141.235 68.643 139.425 68.6349 138.234C68.6268 137.042 72.5957 135.211 73.375 134.951C73.1922 134.008 73.9023 128.567 74.8053 128.068C75.7082 127.569 79.4629 131.816 80.1924 133.236C81.6853 132.468 86.6232 130.766 87.3158 131.541C88.0084 132.317 85.2948 137.403 84.5742 138.314C85.5656 139.209 87.3091 142.669 86.8726 143.517C86.4361 144.366 81.6863 144.18 80.3165 143.798C79.3414 145.361 76.2909 147.939 75.5695 147.711Z" fill="url(#paint19_linear)"/>
        <path d="M75.5695 147.711C74.8481 147.483 74.2335 143.646 74.1666 141.804C72.6874 141.235 68.643 139.425 68.6349 138.234C68.6268 137.042 72.5957 135.211 73.375 134.951C73.1922 134.008 73.9023 128.567 74.8053 128.068C75.7082 127.569 79.4629 131.816 80.1924 133.236C81.6853 132.468 86.6232 130.766 87.3158 131.541C88.0084 132.317 85.2948 137.403 84.5742 138.314C85.5656 139.209 87.3091 142.669 86.8726 143.517C86.4361 144.366 81.6863 144.18 80.3165 143.798C79.3414 145.361 76.2909 147.939 75.5695 147.711Z" fill="url(#paint20_linear)"/>
    </g>
    <g filter="url(#filter29_d)">
        <path d="M184.041 36.7223C184.289 37.1175 183.047 39.1685 182.343 40.0622C182.812 40.9204 183.993 43.3864 183.521 43.9503C183.049 44.5143 180.45 43.7919 179.98 43.603C179.69 44.1198 177.183 46.3973 176.559 46.2716C175.935 46.1458 175.864 42.6481 176.087 41.6889C175.078 41.4542 172.074 40.2842 172.058 39.6428C172.042 39.0014 175.349 37.6908 176.052 37.55C175.942 36.733 176.503 34.4086 177.047 34.1835C177.591 33.9584 179.753 35.942 180.245 36.6688C181.328 36.3221 183.792 36.327 184.041 36.7223Z" fill="url(#paint21_linear)"/>
        <path d="M184.041 36.7223C184.289 37.1175 183.047 39.1685 182.343 40.0622C182.812 40.9204 183.993 43.3864 183.521 43.9503C183.049 44.5143 180.45 43.7919 179.98 43.603C179.69 44.1198 177.183 46.3973 176.559 46.2716C175.935 46.1458 175.864 42.6481 176.087 41.6889C175.078 41.4542 172.074 40.2842 172.058 39.6428C172.042 39.0014 175.349 37.6908 176.052 37.55C175.942 36.733 176.503 34.4086 177.047 34.1835C177.591 33.9584 179.753 35.942 180.245 36.6688C181.328 36.3221 183.792 36.327 184.041 36.7223Z" fill="url(#paint22_linear)"/>
        <path d="M184.041 36.7223C184.289 37.1175 183.047 39.1685 182.343 40.0622C182.812 40.9204 183.993 43.3864 183.521 43.9503C183.049 44.5143 180.45 43.7919 179.98 43.603C179.69 44.1198 177.183 46.3973 176.559 46.2716C175.935 46.1458 175.864 42.6481 176.087 41.6889C175.078 41.4542 172.074 40.2842 172.058 39.6428C172.042 39.0014 175.349 37.6908 176.052 37.55C175.942 36.733 176.503 34.4086 177.047 34.1835C177.591 33.9584 179.753 35.942 180.245 36.6688C181.328 36.3221 183.792 36.327 184.041 36.7223Z" fill="url(#paint23_linear)"/>
        <path d="M173.929 41.1701C173.929 41.1701 173.93 41.1688 173.934 41.1661C173.931 41.1688 173.929 41.1701 173.929 41.1701ZM172.66 43.0919C172.921 43.2112 173.196 43.3286 173.472 43.4398C173.476 43.7951 173.489 44.1435 173.511 44.4606C173.549 45.0282 173.622 45.6774 173.767 46.2489C173.835 46.5219 173.953 46.9128 174.168 47.2978C174.33 47.5868 174.882 48.4839 176.065 48.7223C176.892 48.8888 177.577 48.6248 177.797 48.5371C178.119 48.409 178.411 48.2439 178.638 48.1022C179.103 47.8128 179.582 47.4433 179.996 47.0977C180.264 46.8743 180.528 46.641 180.772 46.4142C180.954 46.4536 181.139 46.4901 181.321 46.5219C181.773 46.6007 182.344 46.6748 182.903 46.6596C183.181 46.6521 183.553 46.6206 183.947 46.5068C184.32 46.399 184.939 46.1522 185.439 45.5544C185.945 44.9493 186.076 44.2874 186.114 43.898C186.153 43.4866 186.115 43.111 186.071 42.8315C185.981 42.2703 185.799 41.7051 185.628 41.2464C185.506 40.9172 185.369 40.5875 185.231 40.2765C185.412 39.9871 185.587 39.6897 185.744 39.4023C185.954 39.016 186.18 38.5615 186.336 38.1182C186.412 37.9032 186.507 37.5941 186.55 37.2427C186.58 36.9889 186.658 36.1887 186.157 35.3917C185.688 34.6454 184.991 34.3557 184.778 34.2708C184.467 34.1464 184.164 34.0784 183.935 34.0375C183.466 33.9535 182.949 33.9218 182.479 33.9174C182.087 33.9138 181.637 33.9285 181.177 33.971C180.874 33.6758 180.558 33.3921 180.267 33.1492C179.881 32.8278 179.421 32.4773 178.958 32.2098C178.732 32.0797 178.416 31.916 178.048 31.8041C177.766 31.7181 176.974 31.5084 176.092 31.8734C175.441 32.1427 175.048 32.595 174.868 32.8278C174.658 33.098 174.506 33.3753 174.398 33.5976C174.18 34.0466 174.014 34.5427 173.893 34.9853C173.828 35.2229 173.77 35.468 173.72 35.7123C173.38 35.8502 173.04 35.998 172.729 36.1428C172.226 36.3773 171.656 36.6701 171.177 36.9932C170.946 37.1491 170.638 37.3772 170.361 37.6763C170.17 37.8832 169.531 38.6036 169.559 39.7068L172.02 39.6438L169.559 39.7068C169.584 40.7032 170.137 41.3596 170.348 41.5909C170.62 41.8884 170.92 42.1135 171.148 42.2681C171.616 42.586 172.169 42.8671 172.66 43.0919ZM178.624 45.06C178.624 45.0602 178.623 45.0561 178.62 45.0474C178.623 45.0555 178.624 45.0598 178.624 45.06ZM181.625 36.4428C181.625 36.4428 181.625 36.4428 181.625 36.4428C181.626 36.4399 181.626 36.4386 181.626 36.4386C181.626 36.4387 181.626 36.4401 181.625 36.4428ZM173.924 38.1086C173.925 38.1086 173.927 38.1103 173.931 38.1138C173.927 38.1103 173.924 38.1086 173.924 38.1086Z" stroke="white" stroke-width="5"/>
    </g>
    <g filter="url(#filter30_d)">
        <path d="M184.041 36.7223C184.289 37.1175 183.047 39.1685 182.343 40.0622C182.812 40.9204 183.993 43.3864 183.521 43.9503C183.049 44.5143 180.45 43.7919 179.98 43.603C179.69 44.1198 177.183 46.3973 176.559 46.2716C175.935 46.1458 175.864 42.6481 176.087 41.6889C175.078 41.4542 172.074 40.2842 172.058 39.6428C172.042 39.0014 175.349 37.6908 176.052 37.55C175.942 36.733 176.503 34.4086 177.047 34.1835C177.591 33.9584 179.753 35.942 180.245 36.6688C181.328 36.3221 183.792 36.327 184.041 36.7223Z" fill="url(#paint24_linear)"/>
        <path d="M184.041 36.7223C184.289 37.1175 183.047 39.1685 182.343 40.0622C182.812 40.9204 183.993 43.3864 183.521 43.9503C183.049 44.5143 180.45 43.7919 179.98 43.603C179.69 44.1198 177.183 46.3973 176.559 46.2716C175.935 46.1458 175.864 42.6481 176.087 41.6889C175.078 41.4542 172.074 40.2842 172.058 39.6428C172.042 39.0014 175.349 37.6908 176.052 37.55C175.942 36.733 176.503 34.4086 177.047 34.1835C177.591 33.9584 179.753 35.942 180.245 36.6688C181.328 36.3221 183.792 36.327 184.041 36.7223Z" fill="url(#paint25_linear)"/>
        <path d="M184.041 36.7223C184.289 37.1175 183.047 39.1685 182.343 40.0622C182.812 40.9204 183.993 43.3864 183.521 43.9503C183.049 44.5143 180.45 43.7919 179.98 43.603C179.69 44.1198 177.183 46.3973 176.559 46.2716C175.935 46.1458 175.864 42.6481 176.087 41.6889C175.078 41.4542 172.074 40.2842 172.058 39.6428C172.042 39.0014 175.349 37.6908 176.052 37.55C175.942 36.733 176.503 34.4086 177.047 34.1835C177.591 33.9584 179.753 35.942 180.245 36.6688C181.328 36.3221 183.792 36.327 184.041 36.7223Z" fill="url(#paint26_linear)"/>
    </g>
    <defs>
        <filter id="filter0_ddddii" x="45.9998" y="0" width="157" height="166" filterUnits="userSpaceOnUse" color-interpolation-filters="sRGB">
            <feFlood flood-opacity="0" result="BackgroundImageFix"/>
            <feColorMatrix in="SourceAlpha" type="matrix" values="0 0 0 0 0 0 0 0 0 0 0 0 0 0 0 0 0 0 127 0"/>
            <feOffset dx="3" dy="8"/>
            <feGaussianBlur stdDeviation="3"/>
            <feColorMatrix type="matrix" values="0 0 0 0 1 0 0 0 0 0.631373 0 0 0 0 0.568627 0 0 0 0.36 0"/>
            <feBlend mode="normal" in2="BackgroundImageFix" result="effect1_dropShadow"/>
            <feColorMatrix in="SourceAlpha" type="matrix" values="0 0 0 0 0 0 0 0 0 0 0 0 0 0 0 0 0 0 127 0"/>
            <feOffset dx="-3" dy="-7"/>
            <feGaussianBlur stdDeviation="5"/>
            <feColorMatrix type="matrix" values="0 0 0 0 1 0 0 0 0 1 0 0 0 0 1 0 0 0 1 0"/>
            <feBlend mode="normal" in2="effect1_dropShadow" result="effect2_dropShadow"/>
            <feColorMatrix in="SourceAlpha" type="matrix" values="0 0 0 0 0 0 0 0 0 0 0 0 0 0 0 0 0 0 127 0"/>
            <feOffset dx="3" dy="-3"/>
            <feGaussianBlur stdDeviation="3"/>
            <feColorMatrix type="matrix" values="0 0 0 0 1 0 0 0 0 0.631373 0 0 0 0 0.568627 0 0 0 0.19 0"/>
            <feBlend mode="normal" in2="effect2_dropShadow" result="effect3_dropShadow"/>
            <feColorMatrix in="SourceAlpha" type="matrix" values="0 0 0 0 0 0 0 0 0 0 0 0 0 0 0 0 0 0 127 0"/>
            <feOffset dx="-3" dy="3"/>
            <feGaussianBlur stdDeviation="3"/>
            <feColorMatrix type="matrix" values="0 0 0 0 1 0 0 0 0 0.631373 0 0 0 0 0.568627 0 0 0 0.25 0"/>
            <feBlend mode="normal" in2="effect3_dropShadow" result="effect4_dropShadow"/>
            <feBlend mode="normal" in="SourceGraphic" in2="effect4_dropShadow" result="shape"/>
            <feColorMatrix in="SourceAlpha" type="matrix" values="0 0 0 0 0 0 0 0 0 0 0 0 0 0 0 0 0 0 127 0" result="hardAlpha"/>
            <feOffset dx="-1" dy="-1"/>
            <feGaussianBlur stdDeviation="1"/>
            <feComposite in2="hardAlpha" operator="arithmetic" k2="-1" k3="1"/>
            <feColorMatrix type="matrix" values="0 0 0 0 1 0 0 0 0 0.631373 0 0 0 0 0.568627 0 0 0 0.06 0"/>
            <feBlend mode="normal" in2="shape" result="effect5_innerShadow"/>
            <feColorMatrix in="SourceAlpha" type="matrix" values="0 0 0 0 0 0 0 0 0 0 0 0 0 0 0 0 0 0 127 0" result="hardAlpha"/>
            <feOffset dx="1" dy="1"/>
            <feGaussianBlur stdDeviation="1"/>
            <feComposite in2="hardAlpha" operator="arithmetic" k2="-1" k3="1"/>
            <feColorMatrix type="matrix" values="0 0 0 0 1 0 0 0 0 1 0 0 0 0 1 0 0 0 0.35 0"/>
            <feBlend mode="normal" in2="effect5_innerShadow" result="effect6_innerShadow"/>
        </filter>
        <filter id="filter1_d" x="88.7275" y="49.469" width="113.298" height="125.826" filterUnits="userSpaceOnUse" color-interpolation-filters="sRGB">
            <feFlood flood-opacity="0" result="BackgroundImageFix"/>
            <feColorMatrix in="SourceAlpha" type="matrix" values="0 0 0 0 0 0 0 0 0 0 0 0 0 0 0 0 0 0 127 0"/>
            <feOffset dy="2"/>
            <feGaussianBlur stdDeviation="3"/>
            <feColorMatrix type="matrix" values="0 0 0 0 0.6875 0 0 0 0 0.30651 0 0 0 0 0.30651 0 0 0 0.25 0"/>
            <feBlend mode="normal" in2="BackgroundImageFix" result="effect1_dropShadow"/>
            <feBlend mode="normal" in="SourceGraphic" in2="effect1_dropShadow" result="shape"/>
        </filter>
        <filter id="filter2_d" x="47.8193" y="4.03052" width="128.942" height="129.8" filterUnits="userSpaceOnUse" color-interpolation-filters="sRGB">
            <feFlood flood-opacity="0" result="BackgroundImageFix"/>
            <feColorMatrix in="SourceAlpha" type="matrix" values="0 0 0 0 0 0 0 0 0 0 0 0 0 0 0 0 0 0 127 0"/>
            <feOffset dy="2"/>
            <feGaussianBlur stdDeviation="3"/>
            <feColorMatrix type="matrix" values="0 0 0 0 0.6875 0 0 0 0 0.30651 0 0 0 0 0.30651 0 0 0 0.25 0"/>
            <feBlend mode="normal" in2="BackgroundImageFix" result="effect1_dropShadow"/>
            <feBlend mode="normal" in="SourceGraphic" in2="effect1_dropShadow" result="shape"/>
        </filter>
        <filter id="filter3_d" x="25.676" y="22.6382" width="206.787" height="129.16" filterUnits="userSpaceOnUse" color-interpolation-filters="sRGB">
            <feFlood flood-opacity="0" result="BackgroundImageFix"/>
            <feColorMatrix in="SourceAlpha" type="matrix" values="0 0 0 0 0 0 0 0 0 0 0 0 0 0 0 0 0 0 127 0"/>
            <feOffset dy="2"/>
            <feGaussianBlur stdDeviation="3"/>
            <feColorMatrix type="matrix" values="0 0 0 0 0.279167 0 0 0 0 0.219526 0 0 0 0 0.209375 0 0 0 0.24 0"/>
            <feBlend mode="normal" in2="BackgroundImageFix" result="effect1_dropShadow"/>
            <feBlend mode="normal" in="SourceGraphic" in2="effect1_dropShadow" result="shape"/>
        </filter>
        <filter id="filter4_d" x="69.0107" y="28.6384" width="115.16" height="115.16" filterUnits="userSpaceOnUse" color-interpolation-filters="sRGB">
            <feFlood flood-opacity="0" result="BackgroundImageFix"/>
            <feColorMatrix in="SourceAlpha" type="matrix" values="0 0 0 0 0 0 0 0 0 0 0 0 0 0 0 0 0 0 127 0"/>
            <feOffset dy="1"/>
            <feGaussianBlur stdDeviation="3.5"/>
            <feColorMatrix type="matrix" values="0 0 0 0 1 0 0 0 0 0.231373 0 0 0 0 0.419608 0 0 0 1 0"/>
            <feBlend mode="normal" in2="BackgroundImageFix" result="effect1_dropShadow"/>
            <feBlend mode="normal" in="SourceGraphic" in2="effect1_dropShadow" result="shape"/>
        </filter>
        <filter id="filter5_d" x="71.4883" y="30.7026" width="109.793" height="106.489" filterUnits="userSpaceOnUse" color-interpolation-filters="sRGB">
            <feFlood flood-opacity="0" result="BackgroundImageFix"/>
            <feColorMatrix in="SourceAlpha" type="matrix" values="0 0 0 0 0 0 0 0 0 0 0 0 0 0 0 0 0 0 127 0"/>
            <feOffset dy="1"/>
            <feGaussianBlur stdDeviation="3.5"/>
            <feColorMatrix type="matrix" values="0 0 0 0 0.279167 0 0 0 0 0.219526 0 0 0 0 0.209375 0 0 0 0.32 0"/>
            <feBlend mode="normal" in2="BackgroundImageFix" result="effect1_dropShadow"/>
            <feBlend mode="normal" in="SourceGraphic" in2="effect1_dropShadow" result="shape"/>
        </filter>
        <filter id="filter6_d" x="90.5764" y="41.7268" width="60.0847" height="36.0818" filterUnits="userSpaceOnUse" color-interpolation-filters="sRGB">
            <feFlood flood-opacity="0" result="BackgroundImageFix"/>
            <feColorMatrix in="SourceAlpha" type="matrix" values="0 0 0 0 0 0 0 0 0 0 0 0 0 0 0 0 0 0 127 0"/>
            <feOffset dy="2"/>
            <feGaussianBlur stdDeviation="3"/>
            <feColorMatrix type="matrix" values="0 0 0 0 0.279167 0 0 0 0 0.219526 0 0 0 0 0.209375 0 0 0 0.24 0"/>
            <feBlend mode="normal" in2="BackgroundImageFix" result="effect1_dropShadow"/>
            <feBlend mode="normal" in="SourceGraphic" in2="effect1_dropShadow" result="shape"/>
        </filter>
        <filter id="filter7_d" x="130.816" y="107.061" width="43.7134" height="17.9577" filterUnits="userSpaceOnUse" color-interpolation-filters="sRGB">
            <feFlood flood-opacity="0" result="BackgroundImageFix"/>
            <feColorMatrix in="SourceAlpha" type="matrix" values="0 0 0 0 0 0 0 0 0 0 0 0 0 0 0 0 0 0 127 0"/>
            <feOffset dy="2"/>
            <feGaussianBlur stdDeviation="3"/>
            <feColorMatrix type="matrix" values="0 0 0 0 0.279167 0 0 0 0 0.219526 0 0 0 0 0.209375 0 0 0 0.24 0"/>
            <feBlend mode="normal" in2="BackgroundImageFix" result="effect1_dropShadow"/>
            <feBlend mode="normal" in="SourceGraphic" in2="effect1_dropShadow" result="shape"/>
        </filter>
        <filter id="filter8_d" x="84.134" y="67.4629" width="72.0092" height="41.7773" filterUnits="userSpaceOnUse" color-interpolation-filters="sRGB">
            <feFlood flood-opacity="0" result="BackgroundImageFix"/>
            <feColorMatrix in="SourceAlpha" type="matrix" values="0 0 0 0 0 0 0 0 0 0 0 0 0 0 0 0 0 0 127 0"/>
            <feOffset dy="2"/>
            <feGaussianBlur stdDeviation="3"/>
            <feColorMatrix type="matrix" values="0 0 0 0 0.279167 0 0 0 0 0.219526 0 0 0 0 0.209375 0 0 0 0.24 0"/>
            <feBlend mode="normal" in2="BackgroundImageFix" result="effect1_dropShadow"/>
            <feBlend mode="normal" in="SourceGraphic" in2="effect1_dropShadow" result="shape"/>
        </filter>
        <filter id="filter9_d" x="79.3096" y="96.2146" width="50.1509" height="29.9578" filterUnits="userSpaceOnUse" color-interpolation-filters="sRGB">
            <feFlood flood-opacity="0" result="BackgroundImageFix"/>
            <feColorMatrix in="SourceAlpha" type="matrix" values="0 0 0 0 0 0 0 0 0 0 0 0 0 0 0 0 0 0 127 0"/>
            <feOffset dy="2"/>
            <feGaussianBlur stdDeviation="3"/>
            <feColorMatrix type="matrix" values="0 0 0 0 0.279167 0 0 0 0 0.219526 0 0 0 0 0.209375 0 0 0 0.24 0"/>
            <feBlend mode="normal" in2="BackgroundImageFix" result="effect1_dropShadow"/>
            <feBlend mode="normal" in="SourceGraphic" in2="effect1_dropShadow" result="shape"/>
        </filter>
        <filter id="filter10_d" x="122.059" y="38.9998" width="49.3973" height="32.9027" filterUnits="userSpaceOnUse" color-interpolation-filters="sRGB">
            <feFlood flood-opacity="0" result="BackgroundImageFix"/>
            <feColorMatrix in="SourceAlpha" type="matrix" values="0 0 0 0 0 0 0 0 0 0 0 0 0 0 0 0 0 0 127 0"/>
            <feOffset dy="2"/>
            <feGaussianBlur stdDeviation="3"/>
            <feColorMatrix type="matrix" values="0 0 0 0 0.279167 0 0 0 0 0.219526 0 0 0 0 0.209375 0 0 0 0.24 0"/>
            <feBlend mode="normal" in2="BackgroundImageFix" result="effect1_dropShadow"/>
            <feBlend mode="normal" in="SourceGraphic" in2="effect1_dropShadow" result="shape"/>
        </filter>
        <filter id="filter11_d" x="130.501" y="73.3689" width="52.4897" height="19.2229" filterUnits="userSpaceOnUse" color-interpolation-filters="sRGB">
            <feFlood flood-opacity="0" result="BackgroundImageFix"/>
            <feColorMatrix in="SourceAlpha" type="matrix" values="0 0 0 0 0 0 0 0 0 0 0 0 0 0 0 0 0 0 127 0"/>
            <feOffset dy="2"/>
            <feGaussianBlur stdDeviation="3"/>
            <feColorMatrix type="matrix" values="0 0 0 0 0.279167 0 0 0 0 0.219526 0 0 0 0 0.209375 0 0 0 0.24 0"/>
            <feBlend mode="normal" in2="BackgroundImageFix" result="effect1_dropShadow"/>
            <feBlend mode="normal" in="SourceGraphic" in2="effect1_dropShadow" result="shape"/>
        </filter>
        <filter id="filter12_d" x="71.7542" y="67.3872" width="32.4326" height="30.5876" filterUnits="userSpaceOnUse" color-interpolation-filters="sRGB">
            <feFlood flood-opacity="0" result="BackgroundImageFix"/>
            <feColorMatrix in="SourceAlpha" type="matrix" values="0 0 0 0 0 0 0 0 0 0 0 0 0 0 0 0 0 0 127 0"/>
            <feOffset dy="2"/>
            <feGaussianBlur stdDeviation="3"/>
            <feColorMatrix type="matrix" values="0 0 0 0 0.279167 0 0 0 0 0.219526 0 0 0 0 0.209375 0 0 0 0.24 0"/>
            <feBlend mode="normal" in2="BackgroundImageFix" result="effect1_dropShadow"/>
            <feBlend mode="normal" in="SourceGraphic" in2="effect1_dropShadow" result="shape"/>
        </filter>
        <filter id="filter13_d" x="72.7722" y="57.2166" width="101.259" height="78.1806" filterUnits="userSpaceOnUse" color-interpolation-filters="sRGB">
            <feFlood flood-opacity="0" result="BackgroundImageFix"/>
            <feColorMatrix in="SourceAlpha" type="matrix" values="0 0 0 0 0 0 0 0 0 0 0 0 0 0 0 0 0 0 127 0"/>
            <feOffset dy="-2"/>
            <feGaussianBlur stdDeviation="1"/>
            <feColorMatrix type="matrix" values="0 0 0 0 0.8125 0 0 0 0 0.497656 0 0 0 0 0.497656 0 0 0 0.25 0"/>
            <feBlend mode="normal" in2="BackgroundImageFix" result="effect1_dropShadow"/>
            <feBlend mode="normal" in="SourceGraphic" in2="effect1_dropShadow" result="shape"/>
        </filter>
        <filter id="filter14_d" x="48.979" y="13.5369" width="154.071" height="79.097" filterUnits="userSpaceOnUse" color-interpolation-filters="sRGB">
            <feFlood flood-opacity="0" result="BackgroundImageFix"/>
            <feColorMatrix in="SourceAlpha" type="matrix" values="0 0 0 0 0 0 0 0 0 0 0 0 0 0 0 0 0 0 127 0"/>
            <feOffset dy="2"/>
            <feGaussianBlur stdDeviation="2"/>
            <feColorMatrix type="matrix" values="0 0 0 0 1 0 0 0 0 0.141176 0 0 0 0 0.141176 0 0 0 0.3 0"/>
            <feBlend mode="normal" in2="BackgroundImageFix" result="effect1_dropShadow"/>
            <feBlend mode="normal" in="SourceGraphic" in2="effect1_dropShadow" result="shape"/>
        </filter>
        <filter id="filter15_d" x="50.7622" y="13.6565" width="157.796" height="146.561" filterUnits="userSpaceOnUse" color-interpolation-filters="sRGB">
            <feFlood flood-opacity="0" result="BackgroundImageFix"/>
            <feColorMatrix in="SourceAlpha" type="matrix" values="0 0 0 0 0 0 0 0 0 0 0 0 0 0 0 0 0 0 127 0"/>
            <feOffset dy="2"/>
            <feGaussianBlur stdDeviation="3"/>
            <feColorMatrix type="matrix" values="0 0 0 0 0.279167 0 0 0 0 0.219526 0 0 0 0 0.209375 0 0 0 0.24 0"/>
            <feBlend mode="normal" in2="BackgroundImageFix" result="effect1_dropShadow"/>
            <feBlend mode="normal" in="SourceGraphic" in2="effect1_dropShadow" result="shape"/>
        </filter>
        <filter id="filter16_d" x="33.6755" y="45.9155" width="190.785" height="81.3671" filterUnits="userSpaceOnUse" color-interpolation-filters="sRGB">
            <feFlood flood-opacity="0" result="BackgroundImageFix"/>
            <feColorMatrix in="SourceAlpha" type="matrix" values="0 0 0 0 0 0 0 0 0 0 0 0 0 0 0 0 0 0 127 0"/>
            <feOffset dy="2"/>
            <feGaussianBlur stdDeviation="3"/>
            <feColorMatrix type="matrix" values="0 0 0 0 0.279167 0 0 0 0 0.219526 0 0 0 0 0.209375 0 0 0 0.24 0"/>
            <feBlend mode="normal" in2="BackgroundImageFix" result="effect1_dropShadow"/>
            <feBlend mode="normal" in="SourceGraphic" in2="effect1_dropShadow" result="shape"/>
        </filter>
        <filter id="filter17_d" x="85.1782" y="118.579" width="13.2531" height="13.2531" filterUnits="userSpaceOnUse" color-interpolation-filters="sRGB">
            <feFlood flood-opacity="0" result="BackgroundImageFix"/>
            <feColorMatrix in="SourceAlpha" type="matrix" values="0 0 0 0 0 0 0 0 0 0 0 0 0 0 0 0 0 0 127 0"/>
            <feOffset dy="2"/>
            <feGaussianBlur stdDeviation="2.5"/>
            <feColorMatrix type="matrix" values="0 0 0 0 0.654167 0 0 0 0 0.507795 0 0 0 0 0.504253 0 0 0 0.33 0"/>
            <feBlend mode="normal" in2="BackgroundImageFix" result="effect1_dropShadow"/>
            <feBlend mode="normal" in="SourceGraphic" in2="effect1_dropShadow" result="shape"/>
        </filter>
        <filter id="filter18_d" x="210.676" y="70.6626" width="13.2531" height="13.2531" filterUnits="userSpaceOnUse" color-interpolation-filters="sRGB">
            <feFlood flood-opacity="0" result="BackgroundImageFix"/>
            <feColorMatrix in="SourceAlpha" type="matrix" values="0 0 0 0 0 0 0 0 0 0 0 0 0 0 0 0 0 0 127 0"/>
            <feOffset dy="2"/>
            <feGaussianBlur stdDeviation="2.5"/>
            <feColorMatrix type="matrix" values="0 0 0 0 0.654167 0 0 0 0 0.507795 0 0 0 0 0.504253 0 0 0 0.33 0"/>
            <feBlend mode="normal" in2="BackgroundImageFix" result="effect1_dropShadow"/>
            <feBlend mode="normal" in="SourceGraphic" in2="effect1_dropShadow" result="shape"/>
        </filter>
        <filter id="filter19_d" x="64.3652" y="101.809" width="12.5129" height="12.5129" filterUnits="userSpaceOnUse" color-interpolation-filters="sRGB">
            <feFlood flood-opacity="0" result="BackgroundImageFix"/>
            <feColorMatrix in="SourceAlpha" type="matrix" values="0 0 0 0 0 0 0 0 0 0 0 0 0 0 0 0 0 0 127 0"/>
            <feOffset dy="2"/>
            <feGaussianBlur stdDeviation="2.5"/>
            <feColorMatrix type="matrix" values="0 0 0 0 0.654167 0 0 0 0 0.507795 0 0 0 0 0.504253 0 0 0 0.33 0"/>
            <feBlend mode="normal" in2="BackgroundImageFix" result="effect1_dropShadow"/>
            <feBlend mode="normal" in="SourceGraphic" in2="effect1_dropShadow" result="shape"/>
        </filter>
        <filter id="filter20_d" x="210.249" y="46.8223" width="12.5129" height="12.5129" filterUnits="userSpaceOnUse" color-interpolation-filters="sRGB">
            <feFlood flood-opacity="0" result="BackgroundImageFix"/>
            <feColorMatrix in="SourceAlpha" type="matrix" values="0 0 0 0 0 0 0 0 0 0 0 0 0 0 0 0 0 0 127 0"/>
            <feOffset dy="2"/>
            <feGaussianBlur stdDeviation="2.5"/>
            <feColorMatrix type="matrix" values="0 0 0 0 0.654167 0 0 0 0 0.507795 0 0 0 0 0.504253 0 0 0 0.33 0"/>
            <feBlend mode="normal" in2="BackgroundImageFix" result="effect1_dropShadow"/>
            <feBlend mode="normal" in="SourceGraphic" in2="effect1_dropShadow" result="shape"/>
        </filter>
        <filter id="filter21_d" x="59.8213" y="117.156" width="15.5835" height="15.5835" filterUnits="userSpaceOnUse" color-interpolation-filters="sRGB">
            <feFlood flood-opacity="0" result="BackgroundImageFix"/>
            <feColorMatrix in="SourceAlpha" type="matrix" values="0 0 0 0 0 0 0 0 0 0 0 0 0 0 0 0 0 0 127 0"/>
            <feOffset dy="2"/>
            <feGaussianBlur stdDeviation="2.5"/>
            <feColorMatrix type="matrix" values="0 0 0 0 0.654167 0 0 0 0 0.507795 0 0 0 0 0.504253 0 0 0 0.33 0"/>
            <feBlend mode="normal" in2="BackgroundImageFix" result="effect1_dropShadow"/>
            <feBlend mode="normal" in="SourceGraphic" in2="effect1_dropShadow" result="shape"/>
        </filter>
        <filter id="filter22_d" x="205.705" y="62.1694" width="15.5835" height="15.5835" filterUnits="userSpaceOnUse" color-interpolation-filters="sRGB">
            <feFlood flood-opacity="0" result="BackgroundImageFix"/>
            <feColorMatrix in="SourceAlpha" type="matrix" values="0 0 0 0 0 0 0 0 0 0 0 0 0 0 0 0 0 0 127 0"/>
            <feOffset dy="2"/>
            <feGaussianBlur stdDeviation="2.5"/>
            <feColorMatrix type="matrix" values="0 0 0 0 0.654167 0 0 0 0 0.507795 0 0 0 0 0.504253 0 0 0 0.33 0"/>
            <feBlend mode="normal" in2="BackgroundImageFix" result="effect1_dropShadow"/>
            <feBlend mode="normal" in="SourceGraphic" in2="effect1_dropShadow" result="shape"/>
        </filter>
        <filter id="filter23_d" x="148.361" y="109.635" width="18.143" height="18.143" filterUnits="userSpaceOnUse" color-interpolation-filters="sRGB">
            <feFlood flood-opacity="0" result="BackgroundImageFix"/>
            <feColorMatrix in="SourceAlpha" type="matrix" values="0 0 0 0 0 0 0 0 0 0 0 0 0 0 0 0 0 0 127 0"/>
            <feOffset dy="2"/>
            <feGaussianBlur stdDeviation="2.5"/>
            <feColorMatrix type="matrix" values="0 0 0 0 0.654167 0 0 0 0 0.507795 0 0 0 0 0.504253 0 0 0 0.33 0"/>
            <feBlend mode="normal" in2="BackgroundImageFix" result="effect1_dropShadow"/>
            <feBlend mode="normal" in="SourceGraphic" in2="effect1_dropShadow" result="shape"/>
        </filter>
        <filter id="filter24_d" x="32.0347" y="35.9211" width="15.3861" height="15.3861" filterUnits="userSpaceOnUse" color-interpolation-filters="sRGB">
            <feFlood flood-opacity="0" result="BackgroundImageFix"/>
            <feColorMatrix in="SourceAlpha" type="matrix" values="0 0 0 0 0 0 0 0 0 0 0 0 0 0 0 0 0 0 127 0"/>
            <feOffset dy="2"/>
            <feGaussianBlur stdDeviation="2.5"/>
            <feColorMatrix type="matrix" values="0 0 0 0 0.654167 0 0 0 0 0.507795 0 0 0 0 0.504253 0 0 0 0.33 0"/>
            <feBlend mode="normal" in2="BackgroundImageFix" result="effect1_dropShadow"/>
            <feBlend mode="normal" in="SourceGraphic" in2="effect1_dropShadow" result="shape"/>
        </filter>
        <filter id="filter25_d" x="135.135" y="13.1826" width="41.5432" height="41.5432" filterUnits="userSpaceOnUse" color-interpolation-filters="sRGB">
            <feFlood flood-opacity="0" result="BackgroundImageFix"/>
            <feColorMatrix in="SourceAlpha" type="matrix" values="0 0 0 0 0 0 0 0 0 0 0 0 0 0 0 0 0 0 127 0"/>
            <feOffset dy="2"/>
            <feGaussianBlur stdDeviation="2"/>
            <feColorMatrix type="matrix" values="0 0 0 0 0.278431 0 0 0 0 0.219608 0 0 0 0 0.207843 0 0 0 0.25 0"/>
            <feBlend mode="normal" in2="BackgroundImageFix" result="effect1_dropShadow"/>
            <feBlend mode="normal" in="SourceGraphic" in2="effect1_dropShadow" result="shape"/>
        </filter>
        <filter id="filter26_d" x="143.204" y="20.2512" width="25.4061" height="25.4061" filterUnits="userSpaceOnUse" color-interpolation-filters="sRGB">
            <feFlood flood-opacity="0" result="BackgroundImageFix"/>
            <feColorMatrix in="SourceAlpha" type="matrix" values="0 0 0 0 0 0 0 0 0 0 0 0 0 0 0 0 0 0 127 0"/>
            <feOffset dy="1"/>
            <feGaussianBlur stdDeviation="1.5"/>
            <feColorMatrix type="matrix" values="0 0 0 0 0.278431 0 0 0 0 0.219608 0 0 0 0 0.207843 0 0 0 0.25 0"/>
            <feBlend mode="normal" in2="BackgroundImageFix" result="effect1_dropShadow"/>
            <feBlend mode="normal" in="SourceGraphic" in2="effect1_dropShadow" result="shape"/>
        </filter>
        <filter id="filter27_d" x="59.635" y="121.026" width="36.7937" height="37.698" filterUnits="userSpaceOnUse" color-interpolation-filters="sRGB">
            <feFlood flood-opacity="0" result="BackgroundImageFix"/>
            <feColorMatrix in="SourceAlpha" type="matrix" values="0 0 0 0 0 0 0 0 0 0 0 0 0 0 0 0 0 0 127 0"/>
            <feOffset dy="2"/>
            <feGaussianBlur stdDeviation="2"/>
            <feColorMatrix type="matrix" values="0 0 0 0 0.278431 0 0 0 0 0.219608 0 0 0 0 0.207843 0 0 0 0.25 0"/>
            <feBlend mode="normal" in2="BackgroundImageFix" result="effect1_dropShadow"/>
            <feBlend mode="normal" in="SourceGraphic" in2="effect1_dropShadow" result="shape"/>
        </filter>
        <filter id="filter28_d" x="65.635" y="126.027" width="24.7931" height="25.6974" filterUnits="userSpaceOnUse" color-interpolation-filters="sRGB">
            <feFlood flood-opacity="0" result="BackgroundImageFix"/>
            <feColorMatrix in="SourceAlpha" type="matrix" values="0 0 0 0 0 0 0 0 0 0 0 0 0 0 0 0 0 0 127 0"/>
            <feOffset dy="1"/>
            <feGaussianBlur stdDeviation="1.5"/>
            <feColorMatrix type="matrix" values="0 0 0 0 0.278431 0 0 0 0 0.219608 0 0 0 0 0.207843 0 0 0 0.25 0"/>
            <feBlend mode="normal" in2="BackgroundImageFix" result="effect1_dropShadow"/>
            <feBlend mode="normal" in="SourceGraphic" in2="effect1_dropShadow" result="shape"/>
        </filter>
        <filter id="filter29_d" x="160.083" y="22.854" width="37.9705" height="37.9705" filterUnits="userSpaceOnUse" color-interpolation-filters="sRGB">
            <feFlood flood-opacity="0" result="BackgroundImageFix"/>
            <feColorMatrix in="SourceAlpha" type="matrix" values="0 0 0 0 0 0 0 0 0 0 0 0 0 0 0 0 0 0 127 0"/>
            <feOffset dy="2"/>
            <feGaussianBlur stdDeviation="2"/>
            <feColorMatrix type="matrix" values="0 0 0 0 0.278431 0 0 0 0 0.219608 0 0 0 0 0.207843 0 0 0 0.25 0"/>
            <feBlend mode="normal" in2="BackgroundImageFix" result="effect1_dropShadow"/>
            <feBlend mode="normal" in="SourceGraphic" in2="effect1_dropShadow" result="shape"/>
        </filter>
        <filter id="filter30_d" x="167.978" y="29.748" width="22.1822" height="22.1822" filterUnits="userSpaceOnUse" color-interpolation-filters="sRGB">
            <feFlood flood-opacity="0" result="BackgroundImageFix"/>
            <feColorMatrix in="SourceAlpha" type="matrix" values="0 0 0 0 0 0 0 0 0 0 0 0 0 0 0 0 0 0 127 0"/>
            <feOffset dy="1"/>
            <feGaussianBlur stdDeviation="1.5"/>
            <feColorMatrix type="matrix" values="0 0 0 0 0.278431 0 0 0 0 0.219608 0 0 0 0 0.207843 0 0 0 0.25 0"/>
            <feBlend mode="normal" in2="BackgroundImageFix" result="effect1_dropShadow"/>
            <feBlend mode="normal" in="SourceGraphic" in2="effect1_dropShadow" result="shape"/>
        </filter>
        <radialGradient id="paint0_radial" cx="0" cy="0" r="1" gradientUnits="userSpaceOnUse" gradientTransform="translate(141.672 105.243) rotate(142.684) scale(58.8654 54.8371)">
            <stop offset="0.68" stop-color="white"/>
            <stop offset="0.83" stop-color="#F8F9F9"/>
            <stop offset="0.91" stop-color="#F2F2F3"/>
            <stop offset="1" stop-color="white"/>
        </radialGradient>
        <radialGradient id="paint1_radial" cx="0" cy="0" r="1" gradientUnits="userSpaceOnUse" gradientTransform="translate(108.948 101.569) rotate(108.463) scale(7.25578 5.47437)">
            <stop offset="0.83" stop-color="#F8F9F9"/>
            <stop offset="0.91" stop-color="#F2F2F3"/>
            <stop offset="1" stop-color="white"/>
        </radialGradient>
        <radialGradient id="paint2_radial" cx="0" cy="0" r="1" gradientUnits="userSpaceOnUse" gradientTransform="translate(-309.016 397.012) rotate(142.684) scale(32.5661 15.2641)">
            <stop offset="0.68" stop-color="white"/>
            <stop offset="0.83" stop-color="#F8F9F9"/>
            <stop offset="0.91" stop-color="#F2F2F3"/>
            <stop offset="1" stop-color="white"/>
        </radialGradient>
        <radialGradient id="paint3_radial" cx="0" cy="0" r="1" gradientUnits="userSpaceOnUse" gradientTransform="translate(286.41 353.517) rotate(142.684) scale(49.6649 39.1444)">
            <stop offset="0.68" stop-color="white"/>
            <stop offset="0.83" stop-color="#F8F9F9"/>
            <stop offset="0.91" stop-color="#F2F2F3"/>
            <stop offset="1" stop-color="white"/>
        </radialGradient>
        <radialGradient id="paint4_radial" cx="0" cy="0" r="1" gradientUnits="userSpaceOnUse" gradientTransform="translate(206.133 176.25) rotate(142.684) scale(11.6639 10.9419)">
            <stop offset="0.68" stop-color="white"/>
            <stop offset="0.83" stop-color="#F8F9F9"/>
            <stop offset="0.91" stop-color="#F2F2F3"/>
            <stop offset="1" stop-color="white"/>
        </radialGradient>
        <radialGradient id="paint5_radial" cx="0" cy="0" r="1" gradientUnits="userSpaceOnUse" gradientTransform="translate(138.533 165.115) rotate(-178.146) scale(7.15378 5.52988)">
            <stop offset="0.83" stop-color="#F8F9F9"/>
            <stop offset="0.89" stop-color="#F6F7F7"/>
            <stop offset="0.91" stop-color="#F2F2F3"/>
            <stop offset="0.97" stop-color="#F4F4F5"/>
            <stop offset="0.99" stop-color="#FBFBFB"/>
            <stop offset="1" stop-color="white"/>
        </radialGradient>
        <radialGradient id="paint6_radial" cx="0" cy="0" r="1" gradientUnits="userSpaceOnUse" gradientTransform="translate(-586.055 645.653) rotate(174.297) scale(18.5692 10.8641)">
            <stop offset="0.83" stop-color="#F8F9F9"/>
            <stop offset="0.91" stop-color="#F2F2F3"/>
            <stop offset="1" stop-color="white"/>
        </radialGradient>
        <radialGradient id="paint7_radial" cx="0" cy="0" r="1" gradientUnits="userSpaceOnUse" gradientTransform="translate(113.057 66.951) rotate(90.8564) scale(66.2473 61.7139)">
            <stop offset="0.68" stop-color="white"/>
            <stop offset="0.83" stop-color="#F8F9F9"/>
            <stop offset="0.91" stop-color="#F2F2F3"/>
            <stop offset="1" stop-color="white"/>
        </radialGradient>
        <radialGradient id="paint8_radial" cx="0" cy="0" r="1" gradientUnits="userSpaceOnUse" gradientTransform="translate(87.0465 93.3485) rotate(56.6345) scale(8.16568 6.16088)">
            <stop offset="0.83" stop-color="#F8F9F9"/>
            <stop offset="0.91" stop-color="#F2F2F3"/>
            <stop offset="1" stop-color="white"/>
        </radialGradient>
        <radialGradient id="paint9_radial" cx="0" cy="0" r="1" gradientUnits="userSpaceOnUse" gradientTransform="translate(57.734 668.628) rotate(90.8564) scale(36.65 17.1783)">
            <stop offset="0.68" stop-color="white"/>
            <stop offset="0.83" stop-color="#F8F9F9"/>
            <stop offset="0.91" stop-color="#F2F2F3"/>
            <stop offset="1" stop-color="white"/>
        </radialGradient>
        <radialGradient id="paint10_radial" cx="0" cy="0" r="1" gradientUnits="userSpaceOnUse" gradientTransform="translate(433.386 111.576) rotate(90.8564) scale(55.8931 44.0533)">
            <stop offset="0.68" stop-color="white"/>
            <stop offset="0.83" stop-color="#F8F9F9"/>
            <stop offset="0.91" stop-color="#F2F2F3"/>
            <stop offset="1" stop-color="white"/>
        </radialGradient>
        <radialGradient id="paint11_radial" cx="0" cy="0" r="1" gradientUnits="userSpaceOnUse" gradientTransform="translate(220.714 59.306) rotate(90.8564) scale(13.1266 12.3141)">
            <stop offset="0.68" stop-color="white"/>
            <stop offset="0.83" stop-color="#F8F9F9"/>
            <stop offset="0.91" stop-color="#F2F2F3"/>
            <stop offset="1" stop-color="white"/>
        </radialGradient>
        <radialGradient id="paint12_radial" cx="0" cy="0" r="1" gradientUnits="userSpaceOnUse" gradientTransform="translate(163.845 111.372) rotate(130.026) scale(8.05089 6.22335)">
            <stop offset="0.83" stop-color="#F8F9F9"/>
            <stop offset="0.89" stop-color="#F6F7F7"/>
            <stop offset="0.91" stop-color="#F2F2F3"/>
            <stop offset="0.97" stop-color="#F4F4F5"/>
            <stop offset="0.99" stop-color="#FBFBFB"/>
            <stop offset="1" stop-color="white"/>
        </radialGradient>
        <radialGradient id="paint13_radial" cx="0" cy="0" r="1" gradientUnits="userSpaceOnUse" gradientTransform="translate(85.0304 1086.67) rotate(122.468) scale(20.8978 12.2265)">
            <stop offset="0.83" stop-color="#F8F9F9"/>
            <stop offset="0.91" stop-color="#F2F2F3"/>
            <stop offset="1" stop-color="white"/>
        </radialGradient>
        <linearGradient id="paint14_linear" x1="126.385" y1="151.972" x2="123.469" y2="12.039" gradientUnits="userSpaceOnUse">
            <stop offset="0.0306408" stop-color="#E6597B"/>
            <stop offset="0.72802" stop-color="#FF91AB"/>
        </linearGradient>
        <linearGradient id="paint15_linear" x1="99.6183" y1="173.629" x2="116.937" y2="91.5148" gradientUnits="userSpaceOnUse">
            <stop stop-color="#FF908B"/>
            <stop offset="1" stop-color="#FBF0ED" stop-opacity="0"/>
        </linearGradient>
        <linearGradient id="paint16_linear" x1="150.957" y1="31.3309" x2="162.586" y2="33.3013" gradientUnits="userSpaceOnUse">
            <stop stop-color="#FEDF92"/>
            <stop offset="1" stop-color="#FFB673"/>
        </linearGradient>
        <linearGradient id="paint17_linear" x1="150.957" y1="31.3309" x2="162.586" y2="33.3013" gradientUnits="userSpaceOnUse">
            <stop stop-color="#64E0EF"/>
            <stop offset="1" stop-color="#BBF9FF"/>
        </linearGradient>
        <linearGradient id="paint18_linear" x1="145.878" y1="30.0667" x2="162.635" y2="33.055" gradientUnits="userSpaceOnUse">
            <stop stop-color="#EF64D9"/>
            <stop offset="1" stop-color="#BBF9FF"/>
        </linearGradient>
        <linearGradient id="paint19_linear" x1="81.0153" y1="145.063" x2="75.5927" y2="129.648" gradientUnits="userSpaceOnUse">
            <stop stop-color="#64E0EF"/>
            <stop offset="1" stop-color="#BBF9FF"/>
        </linearGradient>
        <linearGradient id="paint20_linear" x1="82.8945" y1="152.067" x2="75.2613" y2="129.755" gradientUnits="userSpaceOnUse">
            <stop stop-color="#EF64D9"/>
            <stop offset="1" stop-color="#BBF9FF"/>
        </linearGradient>
        <linearGradient id="paint21_linear" x1="180.421" y1="35.7942" x2="176.819" y2="45.2134" gradientUnits="userSpaceOnUse">
            <stop stop-color="#FEDF92"/>
            <stop offset="1" stop-color="#FFB673"/>
        </linearGradient>
        <linearGradient id="paint22_linear" x1="180.421" y1="35.7942" x2="176.819" y2="45.2134" gradientUnits="userSpaceOnUse">
            <stop stop-color="#64E0EF"/>
            <stop offset="1" stop-color="#BBF9FF"/>
        </linearGradient>
        <linearGradient id="paint23_linear" x1="180.421" y1="35.7942" x2="176.819" y2="45.2134" gradientUnits="userSpaceOnUse">
            <stop stop-color="#EF64D9"/>
            <stop offset="1" stop-color="#BBF9FF"/>
        </linearGradient>
        <linearGradient id="paint24_linear" x1="180.421" y1="35.7942" x2="176.819" y2="45.2134" gradientUnits="userSpaceOnUse">
            <stop stop-color="#FEDF92"/>
            <stop offset="1" stop-color="#FFB673"/>
        </linearGradient>
        <linearGradient id="paint25_linear" x1="180.421" y1="35.7942" x2="176.819" y2="45.2134" gradientUnits="userSpaceOnUse">
            <stop stop-color="#64E0EF"/>
            <stop offset="1" stop-color="#BBF9FF"/>
        </linearGradient>
        <linearGradient id="paint26_linear" x1="182.332" y1="31.748" x2="177.018" y2="45.2957" gradientUnits="userSpaceOnUse">
            <stop stop-color="#EF64D9"/>
            <stop offset="1" stop-color="#BBF9FF"/>
        </linearGradient>
    </defs>
</svg>
